%TF.GenerationSoftware,KiCad,Pcbnew,(6.0.5-0)*%
%TF.CreationDate,2022-06-18T00:21:31+09:00*%
%TF.ProjectId,tinypicokey-lp,74696e79-7069-4636-9f6b-65792d6c702e,rev?*%
%TF.SameCoordinates,Original*%
%TF.FileFunction,Legend,Top*%
%TF.FilePolarity,Positive*%
%FSLAX46Y46*%
G04 Gerber Fmt 4.6, Leading zero omitted, Abs format (unit mm)*
G04 Created by KiCad (PCBNEW (6.0.5-0)) date 2022-06-18 00:21:31*
%MOMM*%
%LPD*%
G01*
G04 APERTURE LIST*
%ADD10C,0.150000*%
G04 APERTURE END LIST*
D10*
%TO.C,*%
%TO.C,G\u002A\u002A\u002A*%
G36*
X98376264Y-79394795D02*
G01*
X98380683Y-79064324D01*
X98386821Y-78766660D01*
X98394680Y-78512494D01*
X98404258Y-78312516D01*
X98415557Y-78177418D01*
X98426683Y-78121201D01*
X98444268Y-78081420D01*
X98461998Y-78046461D01*
X98485153Y-78016014D01*
X98519011Y-77989768D01*
X98568851Y-77967410D01*
X98639950Y-77948630D01*
X98737588Y-77933116D01*
X98867042Y-77920558D01*
X99033592Y-77910643D01*
X99242516Y-77903062D01*
X99499093Y-77897501D01*
X99808600Y-77893652D01*
X100176317Y-77891201D01*
X100607522Y-77889838D01*
X101107494Y-77889251D01*
X101681510Y-77889131D01*
X102334850Y-77889164D01*
X102362000Y-77889164D01*
X103018540Y-77889132D01*
X103595550Y-77889240D01*
X104098309Y-77889802D01*
X104532096Y-77891129D01*
X104902189Y-77893532D01*
X105213867Y-77897321D01*
X105472408Y-77902809D01*
X105683091Y-77910306D01*
X105851194Y-77920124D01*
X105981996Y-77932573D01*
X106080775Y-77947966D01*
X106152810Y-77966613D01*
X106203380Y-77988825D01*
X106237762Y-78014915D01*
X106261235Y-78045192D01*
X106279078Y-78079969D01*
X106296570Y-78119556D01*
X106297317Y-78121201D01*
X106310524Y-78177157D01*
X106321520Y-78285270D01*
X106330428Y-78450406D01*
X106337370Y-78677429D01*
X106342468Y-78971205D01*
X106345844Y-79336599D01*
X106347620Y-79778475D01*
X106347977Y-80140677D01*
X106347808Y-80614871D01*
X106346785Y-81011595D01*
X106344131Y-81338184D01*
X106339069Y-81601976D01*
X106330823Y-81810308D01*
X106318616Y-81970517D01*
X106301673Y-82089940D01*
X106279216Y-82175914D01*
X106250470Y-82235776D01*
X106214657Y-82276862D01*
X106171002Y-82306510D01*
X106118728Y-82332057D01*
X106115940Y-82333329D01*
X106069806Y-82343808D01*
X105977710Y-82352899D01*
X105835390Y-82360672D01*
X105638587Y-82367195D01*
X105383038Y-82372539D01*
X105064486Y-82376773D01*
X104678668Y-82379964D01*
X104221324Y-82382184D01*
X103688195Y-82383500D01*
X103075019Y-82383983D01*
X102997946Y-82383988D01*
X99991138Y-82383988D01*
X100052863Y-82558936D01*
X100101326Y-82717032D01*
X100110114Y-82810141D01*
X100079522Y-82848073D01*
X100061583Y-82850161D01*
X100005054Y-82829844D01*
X99893000Y-82775043D01*
X99742783Y-82694630D01*
X99605740Y-82617210D01*
X99419396Y-82512164D01*
X99282844Y-82444264D01*
X99174034Y-82405592D01*
X99070913Y-82388229D01*
X98956973Y-82384260D01*
X98715241Y-82360307D01*
X98541770Y-82288369D01*
X98434193Y-82167408D01*
X98426683Y-82151951D01*
X98413901Y-82081396D01*
X98402839Y-81936742D01*
X98393497Y-81728678D01*
X98385875Y-81467896D01*
X98379973Y-81165086D01*
X98375792Y-80830939D01*
X98373330Y-80476146D01*
X98372589Y-80111397D01*
X98372996Y-79959907D01*
X98540546Y-79959907D01*
X98541381Y-80311331D01*
X98544327Y-80657379D01*
X98549355Y-80986846D01*
X98556435Y-81288524D01*
X98565538Y-81551206D01*
X98576634Y-81763686D01*
X98589693Y-81914757D01*
X98604687Y-81993211D01*
X98606065Y-81996202D01*
X98718559Y-82125333D01*
X98894106Y-82198748D01*
X99067084Y-82217484D01*
X99196192Y-82235468D01*
X99340607Y-82290946D01*
X99523320Y-82392973D01*
X99542134Y-82404566D01*
X99711025Y-82507230D01*
X99820150Y-82567828D01*
X99880206Y-82591496D01*
X99901885Y-82583365D01*
X99902568Y-82577567D01*
X99889123Y-82528607D01*
X99861353Y-82450723D01*
X99843049Y-82405774D01*
X99828448Y-82366901D01*
X99823116Y-82333665D01*
X99832622Y-82305625D01*
X99862531Y-82282341D01*
X99918409Y-82263374D01*
X100005825Y-82248284D01*
X100130344Y-82236630D01*
X100297533Y-82227973D01*
X100512960Y-82221873D01*
X100782190Y-82217891D01*
X101110790Y-82215585D01*
X101504327Y-82214517D01*
X101968369Y-82214245D01*
X102508480Y-82214332D01*
X102852188Y-82214372D01*
X103472531Y-82213978D01*
X104012343Y-82212751D01*
X104475897Y-82210619D01*
X104867465Y-82207513D01*
X105191321Y-82203363D01*
X105451737Y-82198099D01*
X105652988Y-82191651D01*
X105799345Y-82183949D01*
X105895083Y-82174924D01*
X105944474Y-82164504D01*
X105946324Y-82163713D01*
X106001139Y-82136802D01*
X106046563Y-82105442D01*
X106083479Y-82061941D01*
X106112767Y-81998609D01*
X106135311Y-81907754D01*
X106151992Y-81781687D01*
X106163692Y-81612716D01*
X106171294Y-81393151D01*
X106175680Y-81115301D01*
X106177731Y-80771476D01*
X106178330Y-80353984D01*
X106178361Y-80140677D01*
X106177542Y-79662921D01*
X106174995Y-79265036D01*
X106170585Y-78942098D01*
X106164179Y-78689185D01*
X106155639Y-78501373D01*
X106144833Y-78373741D01*
X106131625Y-78301366D01*
X106127701Y-78290817D01*
X106109618Y-78250185D01*
X106091185Y-78214592D01*
X106066996Y-78183704D01*
X106031643Y-78157189D01*
X105979718Y-78134713D01*
X105905814Y-78115943D01*
X105804524Y-78100545D01*
X105670440Y-78088187D01*
X105498155Y-78078536D01*
X105282261Y-78071257D01*
X105017350Y-78066018D01*
X104698016Y-78062486D01*
X104318850Y-78060328D01*
X103874445Y-78059209D01*
X103359394Y-78058798D01*
X102768290Y-78058761D01*
X102362000Y-78058780D01*
X101721118Y-78058752D01*
X101159636Y-78058893D01*
X100672148Y-78059534D01*
X100253244Y-78061009D01*
X99897519Y-78063652D01*
X99599564Y-78067795D01*
X99353972Y-78073772D01*
X99155335Y-78081916D01*
X98998247Y-78092560D01*
X98877299Y-78106037D01*
X98787084Y-78122681D01*
X98722194Y-78142824D01*
X98677223Y-78166800D01*
X98646762Y-78194942D01*
X98625405Y-78227584D01*
X98607743Y-78265058D01*
X98596299Y-78290817D01*
X98581528Y-78366073D01*
X98569075Y-78514403D01*
X98558910Y-78724599D01*
X98551004Y-78985454D01*
X98545328Y-79285762D01*
X98541852Y-79614315D01*
X98540546Y-79959907D01*
X98372996Y-79959907D01*
X98373567Y-79747383D01*
X98376264Y-79394795D01*
G37*
%TD*%
M02*
