%TF.GenerationSoftware,KiCad,Pcbnew,(6.0.5-0)*%
%TF.CreationDate,2022-06-18T00:21:31+09:00*%
%TF.ProjectId,tinypicokey-lp,74696e79-7069-4636-9f6b-65792d6c702e,rev?*%
%TF.SameCoordinates,Original*%
%TF.FileFunction,Legend,Bot*%
%TF.FilePolarity,Positive*%
%FSLAX46Y46*%
G04 Gerber Fmt 4.6, Leading zero omitted, Abs format (unit mm)*
G04 Created by KiCad (PCBNEW (6.0.5-0)) date 2022-06-18 00:21:31*
%MOMM*%
%LPD*%
G01*
G04 APERTURE LIST*
%ADD10C,0.150000*%
G04 APERTURE END LIST*
D10*
X106647714Y-78063380D02*
X106076285Y-78063380D01*
X106362000Y-79063380D02*
X106362000Y-78063380D01*
X105742952Y-79063380D02*
X105742952Y-78396714D01*
X105742952Y-78063380D02*
X105790571Y-78111000D01*
X105742952Y-78158619D01*
X105695333Y-78111000D01*
X105742952Y-78063380D01*
X105742952Y-78158619D01*
X105266761Y-78396714D02*
X105266761Y-79063380D01*
X105266761Y-78491952D02*
X105219142Y-78444333D01*
X105123904Y-78396714D01*
X104981047Y-78396714D01*
X104885809Y-78444333D01*
X104838190Y-78539571D01*
X104838190Y-79063380D01*
X104457238Y-78396714D02*
X104219142Y-79063380D01*
X103981047Y-78396714D02*
X104219142Y-79063380D01*
X104314380Y-79301476D01*
X104362000Y-79349095D01*
X104457238Y-79396714D01*
X103600095Y-79063380D02*
X103600095Y-78063380D01*
X103219142Y-78063380D01*
X103123904Y-78111000D01*
X103076285Y-78158619D01*
X103028666Y-78253857D01*
X103028666Y-78396714D01*
X103076285Y-78491952D01*
X103123904Y-78539571D01*
X103219142Y-78587190D01*
X103600095Y-78587190D01*
X102600095Y-79063380D02*
X102600095Y-78396714D01*
X102600095Y-78063380D02*
X102647714Y-78111000D01*
X102600095Y-78158619D01*
X102552476Y-78111000D01*
X102600095Y-78063380D01*
X102600095Y-78158619D01*
X101695333Y-79015761D02*
X101790571Y-79063380D01*
X101981047Y-79063380D01*
X102076285Y-79015761D01*
X102123904Y-78968142D01*
X102171523Y-78872904D01*
X102171523Y-78587190D01*
X102123904Y-78491952D01*
X102076285Y-78444333D01*
X101981047Y-78396714D01*
X101790571Y-78396714D01*
X101695333Y-78444333D01*
X101123904Y-79063380D02*
X101219142Y-79015761D01*
X101266761Y-78968142D01*
X101314380Y-78872904D01*
X101314380Y-78587190D01*
X101266761Y-78491952D01*
X101219142Y-78444333D01*
X101123904Y-78396714D01*
X100981047Y-78396714D01*
X100885809Y-78444333D01*
X100838190Y-78491952D01*
X100790571Y-78587190D01*
X100790571Y-78872904D01*
X100838190Y-78968142D01*
X100885809Y-79015761D01*
X100981047Y-79063380D01*
X101123904Y-79063380D01*
X100362000Y-79063380D02*
X100362000Y-78063380D01*
X99790571Y-79063380D02*
X100219142Y-78491952D01*
X99790571Y-78063380D02*
X100362000Y-78634809D01*
X98981047Y-79015761D02*
X99076285Y-79063380D01*
X99266761Y-79063380D01*
X99361999Y-79015761D01*
X99409619Y-78920523D01*
X99409619Y-78539571D01*
X99361999Y-78444333D01*
X99266761Y-78396714D01*
X99076285Y-78396714D01*
X98981047Y-78444333D01*
X98933428Y-78539571D01*
X98933428Y-78634809D01*
X99409619Y-78730047D01*
X98600095Y-78396714D02*
X98361999Y-79063380D01*
X98123904Y-78396714D02*
X98361999Y-79063380D01*
X98457238Y-79301476D01*
X98504857Y-79349095D01*
X98600095Y-79396714D01*
X103409619Y-81054333D02*
X103457238Y-81006714D01*
X103552476Y-80863857D01*
X103600095Y-80768619D01*
X103647714Y-80625761D01*
X103695333Y-80387666D01*
X103695333Y-80197190D01*
X103647714Y-79959095D01*
X103600095Y-79816238D01*
X103552476Y-79721000D01*
X103457238Y-79578142D01*
X103409619Y-79530523D01*
X102552476Y-80673380D02*
X103028666Y-80673380D01*
X103028666Y-79673380D01*
X102219142Y-80673380D02*
X102219142Y-79673380D01*
X101838190Y-79673380D01*
X101742952Y-79721000D01*
X101695333Y-79768619D01*
X101647714Y-79863857D01*
X101647714Y-80006714D01*
X101695333Y-80101952D01*
X101742952Y-80149571D01*
X101838190Y-80197190D01*
X102219142Y-80197190D01*
X101314380Y-81054333D02*
X101266761Y-81006714D01*
X101171523Y-80863857D01*
X101123904Y-80768619D01*
X101076285Y-80625761D01*
X101028666Y-80387666D01*
X101028666Y-80197190D01*
X101076285Y-79959095D01*
X101123904Y-79816238D01*
X101171523Y-79721000D01*
X101266761Y-79578142D01*
X101314380Y-79530523D01*
X105862000Y-82283380D02*
X106195333Y-81807190D01*
X106433428Y-82283380D02*
X106433428Y-81283380D01*
X106052476Y-81283380D01*
X105957238Y-81331000D01*
X105909619Y-81378619D01*
X105862000Y-81473857D01*
X105862000Y-81616714D01*
X105909619Y-81711952D01*
X105957238Y-81759571D01*
X106052476Y-81807190D01*
X106433428Y-81807190D01*
X105052476Y-82235761D02*
X105147714Y-82283380D01*
X105338190Y-82283380D01*
X105433428Y-82235761D01*
X105481047Y-82140523D01*
X105481047Y-81759571D01*
X105433428Y-81664333D01*
X105338190Y-81616714D01*
X105147714Y-81616714D01*
X105052476Y-81664333D01*
X105004857Y-81759571D01*
X105004857Y-81854809D01*
X105481047Y-81950047D01*
X104671523Y-81616714D02*
X104433428Y-82283380D01*
X104195333Y-81616714D01*
X103814380Y-82188142D02*
X103766761Y-82235761D01*
X103814380Y-82283380D01*
X103862000Y-82235761D01*
X103814380Y-82188142D01*
X103814380Y-82283380D01*
X102814380Y-82283380D02*
X103385809Y-82283380D01*
X103100095Y-82283380D02*
X103100095Y-81283380D01*
X103195333Y-81426238D01*
X103290571Y-81521476D01*
X103385809Y-81569095D01*
X101671523Y-81378619D02*
X101623904Y-81331000D01*
X101528666Y-81283380D01*
X101290571Y-81283380D01*
X101195333Y-81331000D01*
X101147714Y-81378619D01*
X101100095Y-81473857D01*
X101100095Y-81569095D01*
X101147714Y-81711952D01*
X101719142Y-82283380D01*
X101100095Y-82283380D01*
X100481047Y-81283380D02*
X100385809Y-81283380D01*
X100290571Y-81331000D01*
X100242952Y-81378619D01*
X100195333Y-81473857D01*
X100147714Y-81664333D01*
X100147714Y-81902428D01*
X100195333Y-82092904D01*
X100242952Y-82188142D01*
X100290571Y-82235761D01*
X100385809Y-82283380D01*
X100481047Y-82283380D01*
X100576285Y-82235761D01*
X100623904Y-82188142D01*
X100671523Y-82092904D01*
X100719142Y-81902428D01*
X100719142Y-81664333D01*
X100671523Y-81473857D01*
X100623904Y-81378619D01*
X100576285Y-81331000D01*
X100481047Y-81283380D01*
X99766761Y-81378619D02*
X99719142Y-81331000D01*
X99623904Y-81283380D01*
X99385809Y-81283380D01*
X99290571Y-81331000D01*
X99242952Y-81378619D01*
X99195333Y-81473857D01*
X99195333Y-81569095D01*
X99242952Y-81711952D01*
X99814380Y-82283380D01*
X99195333Y-82283380D01*
X98814380Y-81378619D02*
X98766761Y-81331000D01*
X98671523Y-81283380D01*
X98433428Y-81283380D01*
X98338190Y-81331000D01*
X98290571Y-81378619D01*
X98242952Y-81473857D01*
X98242952Y-81569095D01*
X98290571Y-81711952D01*
X98862000Y-82283380D01*
X98242952Y-82283380D01*
X105481047Y-83417190D02*
X105528666Y-83369571D01*
X105623904Y-83321952D01*
X105719142Y-83321952D01*
X105814380Y-83369571D01*
X105862000Y-83417190D01*
X105909619Y-83512428D01*
X105909619Y-83607666D01*
X105862000Y-83702904D01*
X105814380Y-83750523D01*
X105719142Y-83798142D01*
X105623904Y-83798142D01*
X105528666Y-83750523D01*
X105481047Y-83702904D01*
X105481047Y-83321952D02*
X105481047Y-83702904D01*
X105433428Y-83750523D01*
X105385809Y-83750523D01*
X105290571Y-83702904D01*
X105242952Y-83607666D01*
X105242952Y-83369571D01*
X105338190Y-83226714D01*
X105481047Y-83131476D01*
X105671523Y-83083857D01*
X105862000Y-83131476D01*
X106004857Y-83226714D01*
X106100095Y-83369571D01*
X106147714Y-83560047D01*
X106100095Y-83750523D01*
X106004857Y-83893380D01*
X105862000Y-83988619D01*
X105671523Y-84036238D01*
X105481047Y-83988619D01*
X105338190Y-83893380D01*
X104862000Y-83607666D02*
X104385809Y-83607666D01*
X104957238Y-83893380D02*
X104623904Y-82893380D01*
X104290571Y-83893380D01*
X103957238Y-83893380D02*
X103957238Y-82893380D01*
X103862000Y-83512428D02*
X103576285Y-83893380D01*
X103576285Y-83226714D02*
X103957238Y-83607666D01*
X103147714Y-83893380D02*
X103147714Y-82893380D01*
X103052476Y-83512428D02*
X102766761Y-83893380D01*
X102766761Y-83226714D02*
X103147714Y-83607666D01*
X102338190Y-83893380D02*
X102338190Y-83226714D01*
X102338190Y-82893380D02*
X102385809Y-82941000D01*
X102338190Y-82988619D01*
X102290571Y-82941000D01*
X102338190Y-82893380D01*
X102338190Y-82988619D01*
X101481047Y-83845761D02*
X101576285Y-83893380D01*
X101766761Y-83893380D01*
X101862000Y-83845761D01*
X101909619Y-83750523D01*
X101909619Y-83369571D01*
X101862000Y-83274333D01*
X101766761Y-83226714D01*
X101576285Y-83226714D01*
X101481047Y-83274333D01*
X101433428Y-83369571D01*
X101433428Y-83464809D01*
X101909619Y-83560047D01*
X101052476Y-83845761D02*
X100957238Y-83893380D01*
X100766761Y-83893380D01*
X100671523Y-83845761D01*
X100623904Y-83750523D01*
X100623904Y-83702904D01*
X100671523Y-83607666D01*
X100766761Y-83560047D01*
X100909619Y-83560047D01*
X101004857Y-83512428D01*
X101052476Y-83417190D01*
X101052476Y-83369571D01*
X101004857Y-83274333D01*
X100909619Y-83226714D01*
X100766761Y-83226714D01*
X100671523Y-83274333D01*
X100052476Y-83893380D02*
X100147714Y-83845761D01*
X100195333Y-83798142D01*
X100242952Y-83702904D01*
X100242952Y-83417190D01*
X100195333Y-83321952D01*
X100147714Y-83274333D01*
X100052476Y-83226714D01*
X99909619Y-83226714D01*
X99814380Y-83274333D01*
X99766761Y-83321952D01*
X99719142Y-83417190D01*
X99719142Y-83702904D01*
X99766761Y-83798142D01*
X99814380Y-83845761D01*
X99909619Y-83893380D01*
X100052476Y-83893380D01*
X99433428Y-83226714D02*
X99052476Y-83226714D01*
X99290571Y-83893380D02*
X99290571Y-83036238D01*
X99242952Y-82941000D01*
X99147714Y-82893380D01*
X99052476Y-82893380D01*
X98862000Y-83226714D02*
X98481047Y-83226714D01*
X98719142Y-82893380D02*
X98719142Y-83750523D01*
X98671523Y-83845761D01*
X98576285Y-83893380D01*
X98481047Y-83893380D01*
M02*
