%TF.GenerationSoftware,KiCad,Pcbnew,(5.99.0-13263-g43c85771eb)*%
%TF.CreationDate,2021-11-13T23:18:43+09:00*%
%TF.ProjectId,tinypicokey,74696e79-7069-4636-9f6b-65792e6b6963,rev?*%
%TF.SameCoordinates,Original*%
%TF.FileFunction,Legend,Top*%
%TF.FilePolarity,Positive*%
%FSLAX46Y46*%
G04 Gerber Fmt 4.6, Leading zero omitted, Abs format (unit mm)*
G04 Created by KiCad (PCBNEW (5.99.0-13263-g43c85771eb)) date 2021-11-13 23:18:43*
%MOMM*%
%LPD*%
G01*
G04 APERTURE LIST*
%ADD10C,0.150000*%
%ADD11C,0.120000*%
G04 APERTURE END LIST*
D10*
%TO.C,*%
D11*
%TO.C,SW1*%
X108280000Y-98155000D02*
X96280000Y-98155000D01*
X96280000Y-84185000D02*
X108280000Y-84185000D01*
%TO.C,*%
G36*
X103386262Y-82105321D02*
G01*
X103378783Y-82063251D01*
X103350039Y-82028963D01*
X103290114Y-81991460D01*
X103277580Y-81984749D01*
X103169090Y-81927359D01*
X103130627Y-82007488D01*
X103061797Y-82121021D01*
X102965618Y-82226882D01*
X102835187Y-82332064D01*
X102758932Y-82384008D01*
X102678473Y-82438143D01*
X102614732Y-82484250D01*
X102575876Y-82516232D01*
X102567832Y-82526660D01*
X102582562Y-82551139D01*
X102621018Y-82597237D01*
X102670159Y-82650035D01*
X102731642Y-82718629D01*
X102767340Y-82770087D01*
X102774105Y-82799246D01*
X102763991Y-82803912D01*
X102744069Y-82789838D01*
X102701047Y-82753329D01*
X102655989Y-82712954D01*
X102589332Y-82654857D01*
X102548406Y-82627688D01*
X102527863Y-82629172D01*
X102522353Y-82656105D01*
X102516327Y-82684943D01*
X102491317Y-82685089D01*
X102452639Y-82666675D01*
X102414632Y-82635473D01*
X102415589Y-82609839D01*
X102454934Y-82599256D01*
X102486938Y-82592903D01*
X102483026Y-82565778D01*
X102477674Y-82555272D01*
X102455821Y-82498776D01*
X102464906Y-82471421D01*
X102495425Y-82472860D01*
X102538755Y-82465583D01*
X102614652Y-82426596D01*
X102723096Y-82355911D01*
X102729826Y-82351228D01*
X102834885Y-82276891D01*
X102906385Y-82222470D01*
X102948690Y-82182774D01*
X102966163Y-82152614D01*
X102963168Y-82126800D01*
X102944067Y-82100142D01*
X102942446Y-82098339D01*
X102926074Y-82077700D01*
X102914095Y-82052602D01*
X102905615Y-82015733D01*
X102899741Y-81959782D01*
X102895578Y-81877436D01*
X102895359Y-81869850D01*
X102933471Y-81869850D01*
X102936701Y-81916295D01*
X102938957Y-81930471D01*
X102959345Y-82004664D01*
X102989653Y-82057293D01*
X103021563Y-82076248D01*
X103042900Y-82058476D01*
X103067163Y-82021152D01*
X103085043Y-81954217D01*
X103081942Y-81907454D01*
X103061581Y-81864816D01*
X103019735Y-81849718D01*
X102996473Y-81848853D01*
X102950232Y-81851858D01*
X102933471Y-81869850D01*
X102895359Y-81869850D01*
X102892234Y-81761383D01*
X102890216Y-81670998D01*
X102887410Y-81579494D01*
X102882675Y-81526498D01*
X102874310Y-81505039D01*
X102860612Y-81508147D01*
X102852283Y-81515674D01*
X102800453Y-81541497D01*
X102704240Y-81559999D01*
X102564155Y-81571134D01*
X102380708Y-81574858D01*
X102206558Y-81572557D01*
X101883540Y-81564610D01*
X101898552Y-81621459D01*
X101907807Y-81674133D01*
X101916641Y-81753369D01*
X101922117Y-81826114D01*
X101928544Y-81912277D01*
X101936607Y-81986893D01*
X101943247Y-82027259D01*
X101943226Y-82081297D01*
X101930132Y-82111556D01*
X101917411Y-82147224D01*
X101937913Y-82190303D01*
X101980674Y-82237817D01*
X102039053Y-82287191D01*
X102098514Y-82327620D01*
X102144518Y-82348296D01*
X102151569Y-82349122D01*
X102178909Y-82360549D01*
X102181260Y-82367822D01*
X102198777Y-82389754D01*
X102241957Y-82424290D01*
X102296748Y-82461880D01*
X102349095Y-82492972D01*
X102384946Y-82508016D01*
X102387956Y-82508298D01*
X102407998Y-82522706D01*
X102393122Y-82565675D01*
X102343493Y-82636823D01*
X102321260Y-82664319D01*
X102258880Y-82745694D01*
X102197482Y-82835299D01*
X102170989Y-82878334D01*
X102120918Y-82951788D01*
X102070797Y-83003790D01*
X102028344Y-83027618D01*
X102005545Y-83022348D01*
X102011121Y-83000364D01*
X102039613Y-82969341D01*
X102066350Y-82938188D01*
X102108197Y-82880782D01*
X102158639Y-82807105D01*
X102211166Y-82727140D01*
X102259265Y-82650866D01*
X102296423Y-82588267D01*
X102316129Y-82549322D01*
X102317697Y-82543118D01*
X102299409Y-82527029D01*
X102253323Y-82499554D01*
X102228837Y-82486629D01*
X102172821Y-82454833D01*
X102137296Y-82428619D01*
X102132194Y-82422034D01*
X102110041Y-82398760D01*
X102062969Y-82362076D01*
X102036410Y-82343570D01*
X101979441Y-82298136D01*
X101906971Y-82230521D01*
X101832546Y-82153538D01*
X101815342Y-82134466D01*
X101682276Y-81984563D01*
X101556326Y-82098624D01*
X101499377Y-82152701D01*
X101462298Y-82192913D01*
X101451616Y-82212028D01*
X101453356Y-82212685D01*
X101472192Y-82231674D01*
X101476337Y-82256960D01*
X101491090Y-82298604D01*
X101531259Y-82364185D01*
X101590701Y-82446529D01*
X101663278Y-82538460D01*
X101742849Y-82632805D01*
X101823274Y-82722389D01*
X101898414Y-82800037D01*
X101962127Y-82858575D01*
X102008274Y-82890830D01*
X102022278Y-82894870D01*
X102044170Y-82912180D01*
X102044824Y-82917609D01*
X102026201Y-82937280D01*
X102007566Y-82940348D01*
X101975766Y-82924276D01*
X101921442Y-82880780D01*
X101851698Y-82816943D01*
X101773635Y-82739848D01*
X101694355Y-82656577D01*
X101620961Y-82574214D01*
X101560554Y-82499842D01*
X101545831Y-82479874D01*
X101501753Y-82421817D01*
X101467045Y-82382608D01*
X101452273Y-82371861D01*
X101437640Y-82391663D01*
X101423203Y-82440200D01*
X101421471Y-82448877D01*
X101404894Y-82512518D01*
X101377168Y-82596465D01*
X101353484Y-82659218D01*
X101319227Y-82759201D01*
X101288642Y-82873059D01*
X101274676Y-82940874D01*
X101256046Y-83027724D01*
X101226663Y-83139704D01*
X101191325Y-83259206D01*
X101170087Y-83324742D01*
X101133047Y-83438692D01*
X101111889Y-83516679D01*
X101106095Y-83565159D01*
X101115144Y-83590586D01*
X101138519Y-83599416D01*
X101147956Y-83599793D01*
X101168496Y-83613045D01*
X101178650Y-83657880D01*
X101180723Y-83717684D01*
X101175056Y-83803866D01*
X101160073Y-83895592D01*
X101138805Y-83981755D01*
X101114282Y-84051248D01*
X101089533Y-84092967D01*
X101076408Y-84100062D01*
X101060321Y-84092039D01*
X101062097Y-84061455D01*
X101080324Y-84003638D01*
X101102441Y-83923821D01*
X101121233Y-83826840D01*
X101128226Y-83774401D01*
X101142108Y-83641589D01*
X101076342Y-83649116D01*
X101031991Y-83662146D01*
X100996936Y-83696458D01*
X100960239Y-83762964D01*
X100958472Y-83766681D01*
X100914190Y-83846544D01*
X100862442Y-83921309D01*
X100840867Y-83946805D01*
X100775367Y-84016890D01*
X100761262Y-83916354D01*
X100755727Y-83856716D01*
X100750373Y-83763190D01*
X100745726Y-83647366D01*
X100744137Y-83588424D01*
X100798585Y-83588424D01*
X100801043Y-83627259D01*
X100808162Y-83630678D01*
X100809068Y-83628651D01*
X100813566Y-83583508D01*
X100809910Y-83560432D01*
X100802672Y-83551159D01*
X100798735Y-83581362D01*
X100798585Y-83588424D01*
X100744137Y-83588424D01*
X100742314Y-83520834D01*
X100741669Y-83486096D01*
X100738241Y-83346279D01*
X100732711Y-83243787D01*
X100724167Y-83170481D01*
X100711695Y-83118221D01*
X100696365Y-83082470D01*
X100665462Y-83034152D01*
X100640118Y-83009413D01*
X100636660Y-83008567D01*
X100618525Y-83030133D01*
X100599939Y-83090212D01*
X100582252Y-83181871D01*
X100566816Y-83298181D01*
X100555471Y-83425133D01*
X100547029Y-83521991D01*
X100536743Y-83606159D01*
X100526414Y-83663750D01*
X100523061Y-83675223D01*
X100509789Y-83703754D01*
X100495085Y-83702516D01*
X100469929Y-83667459D01*
X100456241Y-83645228D01*
X100415004Y-83564021D01*
X100403392Y-83499723D01*
X100405686Y-83478018D01*
X100396296Y-83444705D01*
X100388084Y-83432539D01*
X100369621Y-83393573D01*
X100345619Y-83319774D01*
X100318788Y-83221032D01*
X100296156Y-83125453D01*
X100368940Y-83125453D01*
X100370941Y-83191216D01*
X100373636Y-83210886D01*
X100392972Y-83306294D01*
X100418962Y-83364891D01*
X100456075Y-83395294D01*
X100472056Y-83400748D01*
X100493569Y-83402257D01*
X100507577Y-83387542D01*
X100516692Y-83348246D01*
X100523527Y-83276009D01*
X100526882Y-83225303D01*
X100539836Y-83092977D01*
X100560379Y-83003601D01*
X100589953Y-82955065D01*
X100629997Y-82945256D01*
X100681953Y-82972065D01*
X100693419Y-82981232D01*
X100749331Y-83056767D01*
X100783114Y-83170307D01*
X100794152Y-83315867D01*
X100795598Y-83394419D01*
X100804239Y-83442626D01*
X100826527Y-83475614D01*
X100868916Y-83508513D01*
X100879425Y-83515762D01*
X100939241Y-83554203D01*
X100982986Y-83570661D01*
X101016627Y-83560715D01*
X101046130Y-83519948D01*
X101077464Y-83443941D01*
X101111430Y-83343974D01*
X101149378Y-83222502D01*
X101186573Y-83092696D01*
X101217221Y-82975186D01*
X101227956Y-82928979D01*
X101256108Y-82814472D01*
X101291335Y-82690946D01*
X101325068Y-82587887D01*
X101355127Y-82494665D01*
X101378369Y-82404377D01*
X101389609Y-82337752D01*
X101396748Y-82246794D01*
X101276765Y-82239900D01*
X101212197Y-82239095D01*
X101156589Y-82248119D01*
X101095656Y-82271413D01*
X101015115Y-82313414D01*
X100984053Y-82330858D01*
X100812946Y-82452799D01*
X100654236Y-82617129D01*
X100509454Y-82822078D01*
X100419865Y-82983491D01*
X100383852Y-83063076D01*
X100368940Y-83125453D01*
X100296156Y-83125453D01*
X100291843Y-83107236D01*
X100270263Y-83002882D01*
X100252842Y-82927041D01*
X100234331Y-82886868D01*
X100209600Y-82872734D01*
X100200600Y-82872130D01*
X100155257Y-82889064D01*
X100140183Y-82938730D01*
X100153984Y-83013314D01*
X100165480Y-83065335D01*
X100175903Y-83139343D01*
X100184681Y-83225767D01*
X100191241Y-83315036D01*
X100195009Y-83397580D01*
X100195414Y-83463828D01*
X100191882Y-83504208D01*
X100183841Y-83509151D01*
X100183638Y-83508835D01*
X100172573Y-83473166D01*
X100159265Y-83403094D01*
X100145563Y-83309510D01*
X100135636Y-83225768D01*
X100124036Y-83123676D01*
X100113056Y-83038751D01*
X100104064Y-82980934D01*
X100099109Y-82960680D01*
X100097746Y-82920886D01*
X100123069Y-82871169D01*
X100165191Y-82828634D01*
X100180910Y-82819180D01*
X100216418Y-82792210D01*
X100238781Y-82746554D01*
X100254428Y-82668954D01*
X100254726Y-82666919D01*
X100261640Y-82583993D01*
X100264678Y-82462911D01*
X100264182Y-82310805D01*
X100260494Y-82134801D01*
X100253956Y-81942029D01*
X100244909Y-81739617D01*
X100233695Y-81534695D01*
X100220656Y-81334390D01*
X100206134Y-81145832D01*
X100190469Y-80976149D01*
X100174005Y-80832470D01*
X100163191Y-80757358D01*
X100152139Y-80677135D01*
X100142789Y-80582222D01*
X100134923Y-80467745D01*
X100128320Y-80328829D01*
X100122764Y-80160596D01*
X100118034Y-79958173D01*
X100117120Y-79904587D01*
X100158478Y-79904587D01*
X100159000Y-80055881D01*
X100161058Y-80181746D01*
X100164883Y-80288861D01*
X100170704Y-80383908D01*
X100178752Y-80473566D01*
X100189257Y-80564517D01*
X100200897Y-80652225D01*
X100222245Y-80824716D01*
X100242076Y-81019087D01*
X100260087Y-81228870D01*
X100275972Y-81447598D01*
X100289426Y-81668802D01*
X100300145Y-81886016D01*
X100307824Y-82092771D01*
X100312157Y-82282600D01*
X100312840Y-82449036D01*
X100309569Y-82585610D01*
X100302037Y-82685856D01*
X100298025Y-82712916D01*
X100291418Y-82786247D01*
X100294371Y-82865418D01*
X100305006Y-82937485D01*
X100321442Y-82989504D01*
X100340955Y-83008567D01*
X100357297Y-82989515D01*
X100385132Y-82939827D01*
X100414931Y-82877815D01*
X100517015Y-82701530D01*
X100656435Y-82535632D01*
X100825104Y-82388252D01*
X101014935Y-82267520D01*
X101029439Y-82259952D01*
X101129789Y-82210821D01*
X101201480Y-82182603D01*
X101254408Y-82172093D01*
X101292511Y-82174783D01*
X101341852Y-82178529D01*
X101362607Y-82167345D01*
X101362639Y-82166638D01*
X101381444Y-82147916D01*
X101402998Y-82144467D01*
X101441921Y-82127834D01*
X101494833Y-82085452D01*
X101551290Y-82028595D01*
X101600847Y-81968540D01*
X101633062Y-81916561D01*
X101639105Y-81890767D01*
X101708155Y-81890767D01*
X101722275Y-81925300D01*
X101742104Y-81957666D01*
X101801053Y-82044275D01*
X101844145Y-82088607D01*
X101871792Y-82090854D01*
X101884402Y-82051212D01*
X101885337Y-82025084D01*
X101880904Y-81938082D01*
X101865040Y-81888183D01*
X101832527Y-81867437D01*
X101781905Y-81867442D01*
X101726193Y-81875649D01*
X101708155Y-81890767D01*
X101639105Y-81890767D01*
X101639482Y-81889158D01*
X101647143Y-81860320D01*
X101686769Y-81837142D01*
X101736459Y-81821680D01*
X101802832Y-81799512D01*
X101833023Y-81771626D01*
X101831174Y-81727071D01*
X101801427Y-81654895D01*
X101800374Y-81652669D01*
X101777014Y-81597999D01*
X101775028Y-81570392D01*
X101793667Y-81557177D01*
X101794689Y-81556817D01*
X101789466Y-81546885D01*
X101747586Y-81529829D01*
X101676772Y-81508458D01*
X101624622Y-81494981D01*
X101531897Y-81474053D01*
X101454587Y-81459899D01*
X101404171Y-81454472D01*
X101392799Y-81455575D01*
X101369045Y-81488836D01*
X101359164Y-81564384D01*
X101363180Y-81681185D01*
X101381116Y-81838208D01*
X101383456Y-81854566D01*
X101398911Y-81980130D01*
X101402535Y-82062240D01*
X101394333Y-82100741D01*
X101375329Y-82096518D01*
X101368549Y-82071458D01*
X101357187Y-82010122D01*
X101342741Y-81921305D01*
X101326708Y-81813801D01*
X101324165Y-81795949D01*
X101306878Y-81677099D01*
X101293296Y-81596553D01*
X101281285Y-81547514D01*
X101268712Y-81523184D01*
X101253443Y-81516765D01*
X101237572Y-81520047D01*
X101190095Y-81530212D01*
X101116490Y-81540768D01*
X101061341Y-81546685D01*
X100984524Y-81551536D01*
X100943665Y-81543581D01*
X100934984Y-81515548D01*
X100937618Y-81508147D01*
X101000721Y-81508147D01*
X101050928Y-81497895D01*
X101107104Y-81487388D01*
X101178910Y-81475089D01*
X101188989Y-81473447D01*
X101270573Y-81454680D01*
X101307524Y-81430359D01*
X101300589Y-81397972D01*
X101250512Y-81355006D01*
X101228442Y-81340472D01*
X101169259Y-81304139D01*
X101127716Y-81280881D01*
X101115616Y-81276070D01*
X101102371Y-81295960D01*
X101076840Y-81345285D01*
X101054039Y-81393065D01*
X101000721Y-81508147D01*
X100937618Y-81508147D01*
X100954696Y-81460169D01*
X100984493Y-81398993D01*
X101027429Y-81310118D01*
X101048991Y-81247969D01*
X101049195Y-81199139D01*
X101028056Y-81150217D01*
X100985588Y-81087795D01*
X100984846Y-81086766D01*
X100903011Y-80973383D01*
X100913068Y-81217833D01*
X100915997Y-81317068D01*
X100916159Y-81396969D01*
X100913677Y-81448261D01*
X100909803Y-81462467D01*
X100888997Y-81446843D01*
X100847894Y-81405903D01*
X100800732Y-81354455D01*
X100704984Y-81246257D01*
X100709774Y-81325845D01*
X100707121Y-81381930D01*
X100694338Y-81415033D01*
X100691824Y-81416803D01*
X100676496Y-81403838D01*
X100664876Y-81356045D01*
X100661870Y-81326979D01*
X100654190Y-81266599D01*
X100642532Y-81249976D01*
X100634682Y-81258102D01*
X100613928Y-81280545D01*
X100607030Y-81279708D01*
X100597805Y-81255910D01*
X100576373Y-81195459D01*
X100544970Y-81104826D01*
X100505834Y-80990482D01*
X100461202Y-80858899D01*
X100445529Y-80812446D01*
X100373107Y-80587283D01*
X100316325Y-80384145D01*
X100273625Y-80192441D01*
X100243449Y-80001580D01*
X100224241Y-79800972D01*
X100214442Y-79580025D01*
X100212494Y-79328149D01*
X100213341Y-79233813D01*
X100215937Y-79087357D01*
X100219830Y-78951677D01*
X100224664Y-78835115D01*
X100230082Y-78746013D01*
X100235728Y-78692713D01*
X100236629Y-78688066D01*
X100246700Y-78636949D01*
X100242277Y-78623672D01*
X100219206Y-78641784D01*
X100211506Y-78649063D01*
X100200201Y-78662236D01*
X100190997Y-78681158D01*
X100183622Y-78710441D01*
X100177802Y-78754695D01*
X100173264Y-78818530D01*
X100169735Y-78906558D01*
X100166941Y-79023388D01*
X100164609Y-79173632D01*
X100162466Y-79361899D01*
X100161119Y-79498988D01*
X100159261Y-79721183D01*
X100158478Y-79904587D01*
X100117120Y-79904587D01*
X100113913Y-79716683D01*
X100112706Y-79631754D01*
X100100598Y-78744914D01*
X99989392Y-78892721D01*
X99886740Y-79040847D01*
X99817359Y-79170635D01*
X99777744Y-79290497D01*
X99764388Y-79408849D01*
X99764540Y-79432339D01*
X99763160Y-79508439D01*
X99756138Y-79564829D01*
X99746641Y-79587199D01*
X99721924Y-79582459D01*
X99704009Y-79535752D01*
X99693421Y-79450153D01*
X99690683Y-79328739D01*
X99692029Y-79266935D01*
X99699787Y-79134662D01*
X99715806Y-79025759D01*
X99744058Y-78918323D01*
X99768435Y-78845737D01*
X99839539Y-78660994D01*
X99911864Y-78503120D01*
X99982654Y-78377338D01*
X100049156Y-78288870D01*
X100075190Y-78264060D01*
X100153819Y-78199167D01*
X100120840Y-78074100D01*
X100101453Y-77985885D01*
X100085996Y-77887941D01*
X100075236Y-77790335D01*
X100069944Y-77703137D01*
X100070889Y-77636415D01*
X100078843Y-77600237D01*
X100084325Y-77596571D01*
X100103577Y-77605134D01*
X100118444Y-77635619D01*
X100130885Y-77695221D01*
X100142861Y-77791133D01*
X100146246Y-77823965D01*
X100161870Y-77949077D01*
X100180184Y-78044749D01*
X100199924Y-78106371D01*
X100219825Y-78129336D01*
X100228938Y-78125401D01*
X100239346Y-78086619D01*
X100236416Y-78004569D01*
X100231999Y-77967331D01*
X100316623Y-77967331D01*
X100323074Y-78029794D01*
X100342955Y-78049084D01*
X100377064Y-78025718D01*
X100387742Y-78013473D01*
X100422340Y-77978854D01*
X100478817Y-77929331D01*
X100525325Y-77891315D01*
X100588516Y-77833109D01*
X100609561Y-77791555D01*
X100588389Y-77766045D01*
X100524930Y-77755969D01*
X100509615Y-77755747D01*
X100430533Y-77776533D01*
X100365605Y-77831416D01*
X100325060Y-77909184D01*
X100316623Y-77967331D01*
X100231999Y-77967331D01*
X100227283Y-77927578D01*
X100210494Y-77794023D01*
X100203383Y-77699558D01*
X100206203Y-77638781D01*
X100219206Y-77606292D01*
X100242644Y-77596688D01*
X100242720Y-77596688D01*
X100269890Y-77608097D01*
X100283890Y-77648745D01*
X100287940Y-77691178D01*
X100294600Y-77762561D01*
X100306654Y-77793782D01*
X100328299Y-77790143D01*
X100350665Y-77770432D01*
X100395869Y-77740308D01*
X100461109Y-77712273D01*
X100474788Y-77707884D01*
X100537301Y-77693613D01*
X100582536Y-77700790D01*
X100632793Y-77731453D01*
X100692950Y-77764753D01*
X100729756Y-77759616D01*
X100746635Y-77714370D01*
X100748673Y-77674817D01*
X100752646Y-77621936D01*
X100772631Y-77600483D01*
X100816892Y-77596571D01*
X100870054Y-77606053D01*
X100885110Y-77632212D01*
X100896218Y-77656385D01*
X100935700Y-77651624D01*
X100936274Y-77651441D01*
X100994516Y-77634702D01*
X101064659Y-77616899D01*
X101067026Y-77616342D01*
X101111854Y-77610592D01*
X101187496Y-77606012D01*
X101286701Y-77602589D01*
X101402216Y-77600309D01*
X101526789Y-77599156D01*
X101653169Y-77599116D01*
X101774104Y-77600176D01*
X101882341Y-77602321D01*
X101970629Y-77605537D01*
X102031715Y-77609810D01*
X102058349Y-77615124D01*
X102056193Y-77618288D01*
X102017851Y-77624150D01*
X101943600Y-77627600D01*
X101842956Y-77628462D01*
X101725433Y-77626562D01*
X101680992Y-77625174D01*
X101474415Y-77622036D01*
X101301669Y-77629981D01*
X101152020Y-77651011D01*
X101014736Y-77687131D01*
X100879083Y-77740342D01*
X100765601Y-77795998D01*
X100681564Y-77843931D01*
X100594947Y-77899740D01*
X100512226Y-77958310D01*
X100439879Y-78014524D01*
X100384384Y-78063265D01*
X100352218Y-78099417D01*
X100349857Y-78117865D01*
X100356417Y-78119193D01*
X100384465Y-78127589D01*
X100375414Y-78147447D01*
X100334147Y-78172736D01*
X100302646Y-78185644D01*
X100246239Y-78213933D01*
X100180752Y-78257863D01*
X100117652Y-78308148D01*
X100068407Y-78355501D01*
X100044486Y-78390635D01*
X100043749Y-78395295D01*
X100031364Y-78424072D01*
X99999763Y-78475031D01*
X99976270Y-78508738D01*
X99933499Y-78579159D01*
X99888967Y-78671345D01*
X99846078Y-78775461D01*
X99808237Y-78881672D01*
X99778850Y-78980143D01*
X99761322Y-79061039D01*
X99759058Y-79114525D01*
X99762765Y-79125390D01*
X99779837Y-79119700D01*
X99809820Y-79082066D01*
X99836889Y-79037172D01*
X99891563Y-78947924D01*
X99961809Y-78848084D01*
X100038958Y-78748565D01*
X100114343Y-78660280D01*
X100179296Y-78594144D01*
X100206455Y-78571855D01*
X100258541Y-78523983D01*
X100293453Y-78472911D01*
X100294900Y-78469368D01*
X100319513Y-78428975D01*
X100345591Y-78415269D01*
X100361009Y-78432918D01*
X100361771Y-78443616D01*
X100354489Y-78481151D01*
X100336519Y-78542515D01*
X100326934Y-78571121D01*
X100308347Y-78627664D01*
X100294093Y-78681701D01*
X100283279Y-78741175D01*
X100275013Y-78814025D01*
X100268403Y-78908195D01*
X100262558Y-79031625D01*
X100256584Y-79192256D01*
X100256325Y-79199704D01*
X100251864Y-79373865D01*
X100252483Y-79520788D01*
X100259007Y-79658513D01*
X100272262Y-79805082D01*
X100291294Y-79964686D01*
X100310604Y-80108038D01*
X100329658Y-80226682D01*
X100351495Y-80333295D01*
X100379153Y-80440553D01*
X100415669Y-80561133D01*
X100464082Y-80707712D01*
X100482033Y-80760568D01*
X100624385Y-81178039D01*
X100625281Y-80827361D01*
X100663414Y-80827361D01*
X100665899Y-80865768D01*
X100669433Y-80902654D01*
X100676221Y-80987448D01*
X100680102Y-81067551D01*
X100680455Y-81090255D01*
X100686748Y-81141580D01*
X100702143Y-81166277D01*
X100704588Y-81166669D01*
X100717974Y-81145492D01*
X100716572Y-81083392D01*
X100713462Y-81058656D01*
X100699484Y-80973306D01*
X100683136Y-80891556D01*
X100678308Y-80871056D01*
X100667297Y-80830025D01*
X100663414Y-80827361D01*
X100625281Y-80827361D01*
X100625315Y-80814207D01*
X100628256Y-80634840D01*
X100635001Y-80513569D01*
X100699852Y-80513569D01*
X100699909Y-80518594D01*
X100704538Y-80608657D01*
X100715455Y-80720013D01*
X100731117Y-80843126D01*
X100749983Y-80968461D01*
X100770513Y-81086485D01*
X100791164Y-81187661D01*
X100810396Y-81262456D01*
X100826379Y-81300969D01*
X100835974Y-81292901D01*
X100844071Y-81247078D01*
X100850547Y-81171204D01*
X100855279Y-81072980D01*
X100858142Y-80960110D01*
X100859013Y-80840297D01*
X100857767Y-80721245D01*
X100854283Y-80610656D01*
X100848435Y-80516233D01*
X100840113Y-80445755D01*
X100819551Y-80350490D01*
X100792548Y-80256410D01*
X100774398Y-80206991D01*
X100732865Y-80109283D01*
X100715227Y-80222981D01*
X100706781Y-80303551D01*
X100701279Y-80407701D01*
X100699852Y-80513569D01*
X100635001Y-80513569D01*
X100637208Y-80473895D01*
X100653846Y-80319726D01*
X100679842Y-80160684D01*
X100716871Y-79985121D01*
X100766604Y-79781390D01*
X100782587Y-79719431D01*
X100833969Y-79535724D01*
X100894685Y-79340993D01*
X100960756Y-79146527D01*
X101028203Y-78963617D01*
X101093048Y-78803553D01*
X101146041Y-78688066D01*
X101190317Y-78593763D01*
X101231727Y-78496179D01*
X101257746Y-78426562D01*
X101293959Y-78341782D01*
X101340953Y-78260928D01*
X101360532Y-78234614D01*
X101401767Y-78187665D01*
X101427672Y-78171887D01*
X101450941Y-78182636D01*
X101465326Y-78196278D01*
X101490359Y-78238523D01*
X101516590Y-78309716D01*
X101536907Y-78388226D01*
X101558861Y-78475253D01*
X101594341Y-78594811D01*
X101639975Y-78737207D01*
X101692393Y-78892748D01*
X101748223Y-79051742D01*
X101804092Y-79204496D01*
X101856628Y-79341317D01*
X101902461Y-79452514D01*
X101922862Y-79497703D01*
X101967821Y-79596616D01*
X101992118Y-79661398D01*
X101997240Y-79697643D01*
X101984674Y-79710941D01*
X101979676Y-79711342D01*
X101960850Y-79690723D01*
X101930187Y-79632879D01*
X101889922Y-79543833D01*
X101842294Y-79429607D01*
X101789539Y-79296222D01*
X101733893Y-79149701D01*
X101677595Y-78996065D01*
X101622880Y-78841337D01*
X101571987Y-78691537D01*
X101527151Y-78552689D01*
X101490611Y-78430815D01*
X101464603Y-78331935D01*
X101460474Y-78313670D01*
X101440902Y-78223518D01*
X101390569Y-78294206D01*
X101341994Y-78374207D01*
X101283189Y-78489918D01*
X101217299Y-78633581D01*
X101147471Y-78797437D01*
X101076850Y-78973730D01*
X101008583Y-79154702D01*
X100945814Y-79332593D01*
X100891690Y-79499648D01*
X100865013Y-79590244D01*
X100821882Y-79745737D01*
X100790929Y-79863445D01*
X100771166Y-79949115D01*
X100761608Y-80008493D01*
X100761269Y-80047328D01*
X100769162Y-80071366D01*
X100780385Y-80083529D01*
X100803852Y-80121142D01*
X100830096Y-80194195D01*
X100857024Y-80292910D01*
X100882543Y-80407508D01*
X100904561Y-80528212D01*
X100920983Y-80645245D01*
X100929717Y-80748827D01*
X100930589Y-80785180D01*
X100949120Y-80911340D01*
X101006424Y-81036844D01*
X101105066Y-81167111D01*
X101118497Y-81181906D01*
X101189566Y-81250387D01*
X101266236Y-81310576D01*
X101338935Y-81356389D01*
X101398091Y-81381746D01*
X101432720Y-81381543D01*
X101465773Y-81382282D01*
X101474908Y-81391753D01*
X101502340Y-81406408D01*
X101565144Y-81427027D01*
X101654049Y-81450897D01*
X101759781Y-81475305D01*
X101762294Y-81475841D01*
X101881679Y-81499859D01*
X101982683Y-81515776D01*
X102080187Y-81524830D01*
X102189073Y-81528261D01*
X102324221Y-81527307D01*
X102369716Y-81526403D01*
X102496243Y-81522179D01*
X102601341Y-81515756D01*
X102677732Y-81507761D01*
X102695023Y-81503936D01*
X102943592Y-81503936D01*
X102949698Y-81542717D01*
X102953617Y-81609248D01*
X102954403Y-81657428D01*
X102954403Y-81780635D01*
X103032819Y-81780635D01*
X103119984Y-81801024D01*
X103174941Y-81840596D01*
X103233123Y-81889801D01*
X103297579Y-81936264D01*
X103354880Y-81971042D01*
X103391593Y-81985193D01*
X103392138Y-81985205D01*
X103399487Y-81964159D01*
X103403572Y-81923995D01*
X103456780Y-81923995D01*
X103458549Y-81993622D01*
X103466041Y-82104281D01*
X103602478Y-82155170D01*
X103806936Y-82235288D01*
X103975398Y-82311397D01*
X104116297Y-82389193D01*
X104238069Y-82474373D01*
X104349147Y-82572634D01*
X104457965Y-82689673D01*
X104538616Y-82787464D01*
X104627008Y-82904583D01*
X104687503Y-83002834D01*
X104725012Y-83094844D01*
X104744445Y-83193240D01*
X104750712Y-83310651D01*
X104750822Y-83333199D01*
X104752809Y-83410445D01*
X104757991Y-83468140D01*
X104764474Y-83492168D01*
X104780145Y-83479972D01*
X104809603Y-83435441D01*
X104847214Y-83367367D01*
X104857821Y-83346522D01*
X104899719Y-83269210D01*
X104938404Y-83208930D01*
X104966655Y-83176704D01*
X104970409Y-83174600D01*
X104990287Y-83144687D01*
X104987248Y-83085418D01*
X104962628Y-83005908D01*
X104937765Y-82951718D01*
X104912836Y-82881778D01*
X104898316Y-82801372D01*
X104897683Y-82792542D01*
X104888549Y-82722696D01*
X104867870Y-82616882D01*
X104837413Y-82482618D01*
X104798947Y-82327421D01*
X104754242Y-82158809D01*
X104718454Y-82030769D01*
X104691017Y-81928782D01*
X104667394Y-81830264D01*
X104651764Y-81752926D01*
X104649522Y-81738454D01*
X104633256Y-81660411D01*
X104610062Y-81590820D01*
X104604047Y-81577975D01*
X104584590Y-81528219D01*
X104559958Y-81448209D01*
X104534399Y-81352180D01*
X104525031Y-81313174D01*
X104501008Y-81211455D01*
X104477959Y-81116738D01*
X104459760Y-81044861D01*
X104455171Y-81027733D01*
X104442335Y-80972600D01*
X104424623Y-80885113D01*
X104404480Y-80777803D01*
X104386403Y-80675272D01*
X104366217Y-80562644D01*
X104346155Y-80460414D01*
X104328644Y-80380409D01*
X104316900Y-80336678D01*
X104302817Y-80280555D01*
X104287535Y-80196438D01*
X104274155Y-80101609D01*
X104273094Y-80092650D01*
X104255645Y-79979396D01*
X104230375Y-79857976D01*
X104205549Y-79764376D01*
X104184182Y-79677420D01*
X104163330Y-79561865D01*
X104145747Y-79434536D01*
X104136339Y-79341187D01*
X104126839Y-79234273D01*
X104117391Y-79144117D01*
X104109096Y-79080302D01*
X104103128Y-79052515D01*
X104096899Y-79023981D01*
X104088225Y-78959750D01*
X104078273Y-78869460D01*
X104068573Y-78766919D01*
X104050571Y-78607817D01*
X104025800Y-78454837D01*
X103996027Y-78314389D01*
X103963017Y-78192886D01*
X103928539Y-78096738D01*
X103894357Y-78032358D01*
X103862240Y-78006157D01*
X103858888Y-78005881D01*
X103851624Y-78026517D01*
X103849930Y-78080608D01*
X103854151Y-78156172D01*
X103857631Y-78266180D01*
X103847552Y-78349729D01*
X103840715Y-78370986D01*
X103828149Y-78415353D01*
X103829871Y-78465404D01*
X103847308Y-78535861D01*
X103860891Y-78578842D01*
X103908964Y-78757027D01*
X103948690Y-78967125D01*
X103978293Y-79196049D01*
X103996003Y-79430712D01*
X104000419Y-79608897D01*
X104001946Y-79739114D01*
X104006267Y-79841816D01*
X104012996Y-79911268D01*
X104021744Y-79941736D01*
X104022987Y-79942527D01*
X104041470Y-79967047D01*
X104064176Y-80021549D01*
X104077471Y-80063804D01*
X104105816Y-80154905D01*
X104143729Y-80263347D01*
X104186730Y-80377697D01*
X104230340Y-80486521D01*
X104270079Y-80578383D01*
X104301467Y-80641852D01*
X104308510Y-80653531D01*
X104331890Y-80698722D01*
X104334766Y-80726128D01*
X104334270Y-80726700D01*
X104309193Y-80722331D01*
X104262113Y-80691704D01*
X104201274Y-80642524D01*
X104134922Y-80582495D01*
X104071300Y-80519323D01*
X104018654Y-80460711D01*
X103985228Y-80414364D01*
X103977679Y-80393461D01*
X103960373Y-80371446D01*
X103954940Y-80370787D01*
X103935927Y-80389652D01*
X103932200Y-80412419D01*
X103927547Y-80447205D01*
X103914803Y-80516131D01*
X103895795Y-80610848D01*
X103872348Y-80723003D01*
X103846288Y-80844244D01*
X103819442Y-80966220D01*
X103793634Y-81080579D01*
X103770691Y-81178970D01*
X103752438Y-81253041D01*
X103740701Y-81294440D01*
X103738141Y-81300090D01*
X103718551Y-81305112D01*
X103711744Y-81273069D01*
X103718265Y-81210697D01*
X103727398Y-81167282D01*
X103742882Y-81077162D01*
X103741065Y-80992784D01*
X103719958Y-80899590D01*
X103677576Y-80783021D01*
X103673606Y-80773229D01*
X103619843Y-80641292D01*
X103592582Y-80750489D01*
X103563908Y-80839926D01*
X103525700Y-80929549D01*
X103513929Y-80952158D01*
X103483844Y-81016820D01*
X103470869Y-81081087D01*
X103471393Y-81165444D01*
X103472750Y-81185842D01*
X103480855Y-81266593D01*
X103496017Y-81319275D01*
X103526334Y-81361286D01*
X103575239Y-81406038D01*
X103630237Y-81450348D01*
X103672013Y-81479006D01*
X103686159Y-81485022D01*
X103704384Y-81502337D01*
X103704806Y-81506978D01*
X103684429Y-81522270D01*
X103632388Y-81537116D01*
X103592795Y-81543793D01*
X103480784Y-81558652D01*
X103465920Y-81720807D01*
X103459250Y-81822296D01*
X103456780Y-81923995D01*
X103403572Y-81923995D01*
X103405246Y-81907541D01*
X103408629Y-81825252D01*
X103409192Y-81770607D01*
X103406685Y-81666608D01*
X103399730Y-81589111D01*
X103389183Y-81546202D01*
X103384945Y-81540938D01*
X103350402Y-81532856D01*
X103286056Y-81527415D01*
X103225705Y-81525953D01*
X103151528Y-81522734D01*
X103097388Y-81514391D01*
X103077965Y-81505327D01*
X103080751Y-81480878D01*
X103123596Y-81467994D01*
X103202458Y-81467125D01*
X103313296Y-81478722D01*
X103314659Y-81478918D01*
X103403009Y-81488899D01*
X103477741Y-81492422D01*
X103524114Y-81488858D01*
X103526974Y-81487961D01*
X103544943Y-81475890D01*
X103541311Y-81455086D01*
X103511965Y-81418255D01*
X103454932Y-81360211D01*
X103398099Y-81299944D01*
X103357263Y-81248458D01*
X103340993Y-81216598D01*
X103340974Y-81215989D01*
X103327596Y-81208505D01*
X103290674Y-81234087D01*
X103271791Y-81251651D01*
X103214411Y-81299361D01*
X103135627Y-81354607D01*
X103067695Y-81396471D01*
X102992232Y-81444815D01*
X102950148Y-81483448D01*
X102943592Y-81503936D01*
X102695023Y-81503936D01*
X102718136Y-81498823D01*
X102722178Y-81496014D01*
X102752092Y-81477445D01*
X102810668Y-81455466D01*
X102852075Y-81443534D01*
X103010097Y-81384349D01*
X103160885Y-81288557D01*
X103273418Y-81187837D01*
X103381240Y-81187837D01*
X103390994Y-81206250D01*
X103417309Y-81228723D01*
X103424404Y-81210492D01*
X103416505Y-81169439D01*
X103402126Y-81136211D01*
X103385394Y-81145669D01*
X103384599Y-81146929D01*
X103381240Y-81187837D01*
X103273418Y-81187837D01*
X103296523Y-81167157D01*
X103426032Y-81010936D01*
X103511491Y-80847674D01*
X103554219Y-80673506D01*
X103555533Y-80484569D01*
X103548609Y-80428155D01*
X103512779Y-80250508D01*
X103455769Y-80045742D01*
X103381477Y-79823251D01*
X103293803Y-79592429D01*
X103196646Y-79362667D01*
X103093904Y-79143359D01*
X102989478Y-78943898D01*
X102887266Y-78773678D01*
X102824702Y-78684274D01*
X102759162Y-78603607D01*
X102685756Y-78522727D01*
X102612341Y-78449236D01*
X102546773Y-78390735D01*
X102496907Y-78354827D01*
X102476360Y-78347194D01*
X102456293Y-78366600D01*
X102428573Y-78417059D01*
X102398848Y-78486133D01*
X102372762Y-78561384D01*
X102362928Y-78597108D01*
X102341041Y-78677190D01*
X102311579Y-78773969D01*
X102291260Y-78835872D01*
X102269293Y-78908206D01*
X102241082Y-79012661D01*
X102209809Y-79136869D01*
X102178658Y-79268460D01*
X102169326Y-79309699D01*
X102137781Y-79448717D01*
X102113694Y-79548550D01*
X102095339Y-79614556D01*
X102080988Y-79652092D01*
X102068914Y-79666514D01*
X102057390Y-79663180D01*
X102055843Y-79661723D01*
X102054767Y-79634366D01*
X102063765Y-79570844D01*
X102081107Y-79478916D01*
X102105062Y-79366335D01*
X102133900Y-79240859D01*
X102165890Y-79110245D01*
X102199301Y-78982247D01*
X102232403Y-78864624D01*
X102237568Y-78847242D01*
X102270991Y-78734875D01*
X102301923Y-78629367D01*
X102326643Y-78543501D01*
X102340184Y-78494780D01*
X102368499Y-78408741D01*
X102405346Y-78323658D01*
X102444611Y-78251342D01*
X102480178Y-78203600D01*
X102497138Y-78191682D01*
X102518199Y-78195496D01*
X102516046Y-78232349D01*
X102514598Y-78238338D01*
X102512591Y-78281557D01*
X102537726Y-78318914D01*
X102575479Y-78349315D01*
X102676891Y-78438777D01*
X102787524Y-78564219D01*
X102902305Y-78718450D01*
X103016163Y-78894274D01*
X103124026Y-79084498D01*
X103197734Y-79231856D01*
X103256217Y-79365669D01*
X103322068Y-79532590D01*
X103391460Y-79721648D01*
X103460566Y-79921873D01*
X103525559Y-80122292D01*
X103582614Y-80311935D01*
X103613654Y-80424323D01*
X103639583Y-80512160D01*
X103666013Y-80584812D01*
X103688079Y-80629263D01*
X103692109Y-80634212D01*
X103716467Y-80676592D01*
X103735801Y-80740229D01*
X103737957Y-80751688D01*
X103752247Y-80821458D01*
X103766549Y-80855108D01*
X103782217Y-80850836D01*
X103800609Y-80806838D01*
X103823079Y-80721312D01*
X103848439Y-80604791D01*
X103902595Y-80284971D01*
X103963301Y-80284971D01*
X103976318Y-80302569D01*
X104000683Y-80320945D01*
X104031131Y-80366193D01*
X104036540Y-80376472D01*
X104066784Y-80426498D01*
X104107262Y-80481788D01*
X104148688Y-80531147D01*
X104181772Y-80563382D01*
X104196314Y-80569043D01*
X104191840Y-80546531D01*
X104174795Y-80491595D01*
X104148427Y-80414449D01*
X104136727Y-80381679D01*
X104099249Y-80279505D01*
X104060793Y-80177280D01*
X104028928Y-80095091D01*
X104025511Y-80086544D01*
X103979807Y-79972846D01*
X103976873Y-80075174D01*
X103972670Y-80154297D01*
X103965823Y-80225106D01*
X103963662Y-80240035D01*
X103963301Y-80284971D01*
X103902595Y-80284971D01*
X103915202Y-80210517D01*
X103949065Y-79824607D01*
X103954468Y-79578181D01*
X103948183Y-79392838D01*
X103930998Y-79203095D01*
X103904455Y-79015357D01*
X103870095Y-78836027D01*
X103829458Y-78671508D01*
X103784085Y-78528203D01*
X103735518Y-78412516D01*
X103685298Y-78330851D01*
X103645606Y-78294680D01*
X103617278Y-78263548D01*
X103613782Y-78249201D01*
X103597949Y-78218062D01*
X103556230Y-78165851D01*
X103497166Y-78101210D01*
X103429301Y-78032782D01*
X103361175Y-77969211D01*
X103301331Y-77919138D01*
X103261386Y-77892646D01*
X103193413Y-77854426D01*
X103184518Y-77848563D01*
X103316999Y-77848563D01*
X103459658Y-77994301D01*
X103533326Y-78067160D01*
X103582081Y-78104705D01*
X103611668Y-78105212D01*
X103627834Y-78066959D01*
X103636325Y-77988222D01*
X103639100Y-77940482D01*
X103638147Y-77868830D01*
X103628861Y-77815026D01*
X103620571Y-77798853D01*
X103572170Y-77777249D01*
X103501183Y-77773540D01*
X103426485Y-77786931D01*
X103377232Y-77809096D01*
X103316999Y-77848563D01*
X103184518Y-77848563D01*
X103125322Y-77809546D01*
X103124949Y-77809274D01*
X103072102Y-77776751D01*
X102992242Y-77734472D01*
X102900310Y-77690235D01*
X102874815Y-77678726D01*
X102800282Y-77643387D01*
X102751472Y-77615736D01*
X102734820Y-77599691D01*
X102741030Y-77597237D01*
X102790853Y-77606117D01*
X102865627Y-77629693D01*
X102949770Y-77662033D01*
X103027700Y-77697206D01*
X103078845Y-77725842D01*
X103126849Y-77751671D01*
X103151036Y-77742916D01*
X103158811Y-77694990D01*
X103159058Y-77676159D01*
X103161350Y-77626847D01*
X103176574Y-77603780D01*
X103217255Y-77596986D01*
X103258991Y-77596571D01*
X103358924Y-77596571D01*
X103341014Y-77675981D01*
X103331226Y-77728049D01*
X103339249Y-77746524D01*
X103372175Y-77742011D01*
X103383203Y-77739058D01*
X103507786Y-77724076D01*
X103602478Y-77734331D01*
X103634998Y-77733097D01*
X103650588Y-77702920D01*
X103655083Y-77670474D01*
X103669668Y-77615226D01*
X103694877Y-77596571D01*
X103714127Y-77607722D01*
X103724708Y-77644225D01*
X103726682Y-77710653D01*
X103720115Y-77811579D01*
X103705071Y-77951574D01*
X103700409Y-77989857D01*
X103688306Y-78094423D01*
X103683367Y-78165616D01*
X103686172Y-78215063D01*
X103697303Y-78254390D01*
X103715495Y-78291814D01*
X103744954Y-78337465D01*
X103766390Y-78347441D01*
X103780740Y-78319474D01*
X103788941Y-78251299D01*
X103791930Y-78140647D01*
X103791975Y-78106839D01*
X103794507Y-77935404D01*
X103802638Y-77795234D01*
X103815922Y-77689769D01*
X103833911Y-77622453D01*
X103856158Y-77596729D01*
X103858200Y-77596571D01*
X103875798Y-77603327D01*
X103883717Y-77629635D01*
X103883019Y-77684554D01*
X103876892Y-77755958D01*
X103870114Y-77844761D01*
X103872515Y-77903224D01*
X103886027Y-77945905D01*
X103906497Y-77978980D01*
X103952174Y-78061335D01*
X103998469Y-78175718D01*
X104041575Y-78308896D01*
X104077684Y-78447634D01*
X104102987Y-78578696D01*
X104113677Y-78688849D01*
X104113798Y-78699435D01*
X104116755Y-78760041D01*
X104124738Y-78851684D01*
X104136416Y-78960370D01*
X104146262Y-79040528D01*
X104162950Y-79169636D01*
X104180710Y-79307875D01*
X104196776Y-79433697D01*
X104203505Y-79486757D01*
X104221083Y-79597635D01*
X104244759Y-79710448D01*
X104269847Y-79803263D01*
X104273528Y-79814355D01*
X104298803Y-79903961D01*
X104315225Y-79993158D01*
X104318772Y-80039847D01*
X104324831Y-80116262D01*
X104340354Y-80209933D01*
X104353114Y-80265687D01*
X104373694Y-80353110D01*
X104396753Y-80463877D01*
X104417832Y-80576386D01*
X104420961Y-80594502D01*
X104452229Y-80763412D01*
X104491138Y-80950610D01*
X104534766Y-81143680D01*
X104580190Y-81330206D01*
X104624488Y-81497773D01*
X104664738Y-81633966D01*
X104668042Y-81644198D01*
X104691917Y-81723360D01*
X104719062Y-81821865D01*
X104737613Y-81894332D01*
X104755738Y-81966873D01*
X104782528Y-82072299D01*
X104815136Y-82199497D01*
X104850718Y-82337353D01*
X104874262Y-82428062D01*
X104906396Y-82553905D01*
X104933362Y-82664046D01*
X104953459Y-82751151D01*
X104964987Y-82807890D01*
X104966772Y-82826771D01*
X104970523Y-82852207D01*
X104986849Y-82910966D01*
X105012949Y-82993567D01*
X105037504Y-83066184D01*
X105074868Y-83177036D01*
X105110191Y-83287343D01*
X105138228Y-83380480D01*
X105148514Y-83417878D01*
X105168908Y-83489803D01*
X105199869Y-83590780D01*
X105237039Y-83706900D01*
X105272631Y-83814132D01*
X105315118Y-83944186D01*
X105340848Y-84034299D01*
X105350213Y-84086653D01*
X105343605Y-84103430D01*
X105321754Y-84087176D01*
X105306297Y-84057109D01*
X105281635Y-83994840D01*
X105252090Y-83911588D01*
X105239135Y-83872667D01*
X105205167Y-83774252D01*
X105170386Y-83682741D01*
X105140922Y-83614024D01*
X105133983Y-83600130D01*
X105106480Y-83538493D01*
X105092396Y-83487718D01*
X105091914Y-83480748D01*
X105081598Y-83446800D01*
X105069888Y-83440617D01*
X105056980Y-83457120D01*
X105060164Y-83472674D01*
X105058681Y-83513104D01*
X105038790Y-83569580D01*
X105035174Y-83576844D01*
X105014669Y-83622580D01*
X105009479Y-83662879D01*
X105019630Y-83715704D01*
X105035458Y-83768419D01*
X105070222Y-83854023D01*
X105114444Y-83908673D01*
X105145007Y-83930008D01*
X105219140Y-83982225D01*
X105261708Y-84030710D01*
X105270802Y-84069979D01*
X105244510Y-84094547D01*
X105204269Y-84100062D01*
X105159525Y-84095062D01*
X105145406Y-84082925D01*
X105145920Y-84081922D01*
X105147037Y-84046729D01*
X105107230Y-84017645D01*
X105030934Y-83997489D01*
X105008093Y-83994341D01*
X104940106Y-83987927D01*
X104904020Y-83992714D01*
X104886728Y-84013365D01*
X104878622Y-84040421D01*
X104855990Y-84084417D01*
X104828170Y-84100062D01*
X104805352Y-84090676D01*
X104803190Y-84055134D01*
X104808489Y-84026159D01*
X104824725Y-83968135D01*
X104842139Y-83929963D01*
X104842672Y-83929274D01*
X104856295Y-83900065D01*
X104880593Y-83836357D01*
X104912362Y-83746960D01*
X104948398Y-83640684D01*
X104955931Y-83617888D01*
X104994170Y-83499831D01*
X105018923Y-83416745D01*
X105031638Y-83360646D01*
X105033768Y-83323549D01*
X105026761Y-83297470D01*
X105017067Y-83281310D01*
X104983325Y-83233136D01*
X104937643Y-83297291D01*
X104901374Y-83362671D01*
X104870760Y-83441250D01*
X104866707Y-83455231D01*
X104835486Y-83537979D01*
X104795040Y-83580802D01*
X104750822Y-83589819D01*
X104734499Y-83580138D01*
X104722372Y-83548003D01*
X104713049Y-83486461D01*
X104705137Y-83388555D01*
X104702749Y-83349659D01*
X104692932Y-83223728D01*
X104679114Y-83131420D01*
X104659010Y-83060913D01*
X104637920Y-83014252D01*
X104604147Y-82957687D01*
X104575666Y-82922895D01*
X104566047Y-82917609D01*
X104542902Y-82936846D01*
X104521412Y-82981360D01*
X104509297Y-83031357D01*
X104510684Y-83059533D01*
X104518229Y-83093118D01*
X104531471Y-83160320D01*
X104548249Y-83249961D01*
X104559456Y-83311779D01*
X104577184Y-83415929D01*
X104585788Y-83484206D01*
X104585539Y-83525232D01*
X104576710Y-83547631D01*
X104567152Y-83555880D01*
X104506502Y-83573282D01*
X104452909Y-83550543D01*
X104412853Y-83492995D01*
X104393433Y-83412931D01*
X104384186Y-83341452D01*
X104367638Y-83243399D01*
X104342789Y-83113361D01*
X104308644Y-82945925D01*
X104297968Y-82894870D01*
X104270384Y-82801591D01*
X104234962Y-82738605D01*
X104195916Y-82713156D01*
X104192191Y-82712954D01*
X104162864Y-82723084D01*
X104146094Y-82756134D01*
X104142050Y-82816094D01*
X104150906Y-82906955D01*
X104172831Y-83032707D01*
X104207999Y-83197340D01*
X104214187Y-83224583D01*
X104237689Y-83336171D01*
X104247988Y-83412890D01*
X104245177Y-83463360D01*
X104229352Y-83496205D01*
X104217289Y-83508134D01*
X104188512Y-83520574D01*
X104155698Y-83502927D01*
X104128493Y-83475822D01*
X104103366Y-83443217D01*
X104082549Y-83400728D01*
X104064039Y-83340869D01*
X104045831Y-83256153D01*
X104025922Y-83139094D01*
X104009517Y-83031306D01*
X103988970Y-82950290D01*
X103957135Y-82886722D01*
X103920615Y-82852353D01*
X103907319Y-82849391D01*
X103901108Y-82870393D01*
X103897552Y-82926631D01*
X103896462Y-83007949D01*
X103897648Y-83104192D01*
X103900921Y-83205206D01*
X103906091Y-83300837D01*
X103912968Y-83380928D01*
X103917931Y-83417878D01*
X103937445Y-83519543D01*
X103960476Y-83616591D01*
X103983703Y-83696625D01*
X104003804Y-83747248D01*
X104007936Y-83753834D01*
X104019191Y-83787045D01*
X104014712Y-83797735D01*
X103994222Y-83788223D01*
X103949789Y-83751146D01*
X103888126Y-83692530D01*
X103821788Y-83624586D01*
X103738074Y-83538644D01*
X103677233Y-83483012D01*
X103633174Y-83452936D01*
X103599807Y-83443661D01*
X103590806Y-83444248D01*
X103543345Y-83460882D01*
X103533142Y-83493726D01*
X103560425Y-83546118D01*
X103601110Y-83595285D01*
X103646886Y-83650939D01*
X103676235Y-83696197D01*
X103682066Y-83713154D01*
X103693474Y-83744384D01*
X103723859Y-83802955D01*
X103767466Y-83878043D01*
X103784394Y-83905592D01*
X103830932Y-83981926D01*
X103866399Y-84043277D01*
X103885150Y-84079751D01*
X103886721Y-84084916D01*
X103871050Y-84099861D01*
X103839339Y-84095449D01*
X103814543Y-84075726D01*
X103812907Y-84071905D01*
X103797191Y-84055455D01*
X103760594Y-84063743D01*
X103741724Y-84071905D01*
X103678717Y-84095499D01*
X103642072Y-84099784D01*
X103637132Y-84086723D01*
X103669238Y-84058280D01*
X103682066Y-84049989D01*
X103733527Y-84017967D01*
X103765575Y-83997758D01*
X103769426Y-83995226D01*
X103763208Y-83974067D01*
X103737632Y-83924433D01*
X103698344Y-83855838D01*
X103650989Y-83777799D01*
X103601210Y-83699830D01*
X103554652Y-83631447D01*
X103548765Y-83623252D01*
X103508212Y-83560395D01*
X103482362Y-83507114D01*
X103477411Y-83486209D01*
X103496547Y-83433988D01*
X103542230Y-83394241D01*
X103596874Y-83380398D01*
X103612218Y-83383251D01*
X103647826Y-83387171D01*
X103657074Y-83365037D01*
X103640132Y-83312518D01*
X103616893Y-83263480D01*
X103590223Y-83202505D01*
X103566979Y-83129642D01*
X103545614Y-83037626D01*
X103524584Y-82919191D01*
X103502343Y-82767071D01*
X103487710Y-82656105D01*
X103466988Y-82497383D01*
X103450141Y-82380347D01*
X103435642Y-82301529D01*
X103421966Y-82257458D01*
X103407585Y-82244665D01*
X103390974Y-82259678D01*
X103370608Y-82299029D01*
X103350879Y-82344992D01*
X103311791Y-82408844D01*
X103243950Y-82489964D01*
X103156039Y-82579794D01*
X103056737Y-82669773D01*
X102954726Y-82751340D01*
X102899025Y-82790570D01*
X102824299Y-82839052D01*
X102779418Y-82864191D01*
X102757083Y-82868884D01*
X102749994Y-82856031D01*
X102749747Y-82849853D01*
X102768186Y-82826644D01*
X102814389Y-82795238D01*
X102835021Y-82784042D01*
X102903533Y-82741660D01*
X102979391Y-82684178D01*
X103011251Y-82656416D01*
X103080855Y-82592133D01*
X103151434Y-82527051D01*
X103177268Y-82503265D01*
X103234537Y-82437250D01*
X103291564Y-82349734D01*
X103340844Y-82255005D01*
X103353398Y-82222669D01*
X103480059Y-82222669D01*
X103484408Y-82278719D01*
X103497258Y-82366487D01*
X103517859Y-82492038D01*
X103522424Y-82519668D01*
X103540385Y-82636486D01*
X103555027Y-82746741D01*
X103564729Y-82837219D01*
X103567897Y-82890472D01*
X103578770Y-82969319D01*
X103608358Y-83074488D01*
X103647957Y-83180666D01*
X103683219Y-83268962D01*
X103710473Y-83343130D01*
X103725693Y-83391933D01*
X103727545Y-83402810D01*
X103742917Y-83438006D01*
X103780096Y-83482040D01*
X103781995Y-83483842D01*
X103828615Y-83514027D01*
X103856322Y-83504166D01*
X103860536Y-83457373D01*
X103855812Y-83433640D01*
X103849831Y-83391963D01*
X103842860Y-83315838D01*
X103835782Y-83216259D01*
X103829717Y-83109002D01*
X103824715Y-82979312D01*
X103826108Y-82888811D01*
X103835957Y-82831414D01*
X103856321Y-82801038D01*
X103889261Y-82791598D01*
X103935461Y-82796745D01*
X103974342Y-82811934D01*
X104002103Y-82847120D01*
X104027414Y-82913994D01*
X104030933Y-82925481D01*
X104052536Y-83008978D01*
X104074974Y-83114522D01*
X104093114Y-83217590D01*
X104111588Y-83313485D01*
X104132075Y-83378374D01*
X104151133Y-83404477D01*
X104167798Y-83407470D01*
X104177484Y-83397078D01*
X104179890Y-83367328D01*
X104174717Y-83312250D01*
X104161662Y-83225871D01*
X104140426Y-83102219D01*
X104134123Y-83066586D01*
X104114127Y-82951548D01*
X104102184Y-82871650D01*
X104098079Y-82817311D01*
X104101597Y-82778948D01*
X104112523Y-82746982D01*
X104126334Y-82719796D01*
X104159458Y-82665017D01*
X104186265Y-82649153D01*
X104219203Y-82669693D01*
X104244722Y-82695899D01*
X104289065Y-82764779D01*
X104332969Y-82872889D01*
X104374399Y-83014006D01*
X104411318Y-83181911D01*
X104420645Y-83233309D01*
X104440955Y-83332762D01*
X104464263Y-83419935D01*
X104486803Y-83481616D01*
X104496228Y-83498271D01*
X104524957Y-83534245D01*
X104538216Y-83546402D01*
X104536027Y-83524057D01*
X104527451Y-83466267D01*
X104513931Y-83382388D01*
X104500696Y-83303755D01*
X104476037Y-83145826D01*
X104463197Y-83026885D01*
X104461948Y-82942065D01*
X104472058Y-82886501D01*
X104480222Y-82869793D01*
X104500796Y-82850020D01*
X104522340Y-82871010D01*
X104523079Y-82872130D01*
X104541423Y-82888932D01*
X104545818Y-82880186D01*
X104530457Y-82853750D01*
X104488919Y-82804011D01*
X104428515Y-82738439D01*
X104356557Y-82664502D01*
X104280355Y-82589671D01*
X104207222Y-82521413D01*
X104144467Y-82467198D01*
X104131422Y-82456842D01*
X104059336Y-82408920D01*
X103973077Y-82362076D01*
X103940114Y-82346938D01*
X103854163Y-82309788D01*
X103767520Y-82271666D01*
X103738915Y-82258873D01*
X103657735Y-82226010D01*
X103575242Y-82197990D01*
X103562684Y-82194378D01*
X103525524Y-82184191D01*
X103499866Y-82181468D01*
X103484962Y-82192273D01*
X103480059Y-82222669D01*
X103353398Y-82222669D01*
X103374874Y-82167351D01*
X103386262Y-82105321D01*
G37*
G36*
X99857443Y-83090984D02*
G01*
X99906392Y-83113968D01*
X99965088Y-83171269D01*
X100018017Y-83267249D01*
X100061831Y-83395172D01*
X100076557Y-83456100D01*
X100100379Y-83520915D01*
X100134479Y-83562428D01*
X100170168Y-83570933D01*
X100176605Y-83567898D01*
X100196667Y-83574277D01*
X100210907Y-83607229D01*
X100214501Y-83647858D01*
X100204162Y-83675871D01*
X100170294Y-83685360D01*
X100161252Y-83681734D01*
X100130160Y-83646745D01*
X100090715Y-83580502D01*
X100048930Y-83494899D01*
X100010819Y-83401830D01*
X99992242Y-83347434D01*
X99956351Y-83256511D01*
X99915013Y-83189985D01*
X99873637Y-83154697D01*
X99840527Y-83155488D01*
X99819106Y-83195340D01*
X99822617Y-83272580D01*
X99850979Y-83386613D01*
X99886360Y-83490133D01*
X99934320Y-83621296D01*
X99967311Y-83716832D01*
X99986829Y-83783503D01*
X99994371Y-83828077D01*
X99991432Y-83857317D01*
X99979509Y-83877990D01*
X99973544Y-83884399D01*
X99952788Y-83898446D01*
X99928450Y-83893921D01*
X99892305Y-83865944D01*
X99836129Y-83809632D01*
X99821286Y-83794034D01*
X99753328Y-83727263D01*
X99686974Y-83670200D01*
X99636186Y-83634820D01*
X99634722Y-83634049D01*
X99588535Y-83612266D01*
X99569791Y-83614042D01*
X99566221Y-83640775D01*
X99566220Y-83641858D01*
X99580763Y-83676616D01*
X99619861Y-83734783D01*
X99676722Y-83806818D01*
X99715800Y-83851905D01*
X99802234Y-83950184D01*
X99859200Y-84020138D01*
X99889239Y-84065751D01*
X99894889Y-84091009D01*
X99878691Y-84099893D01*
X99874003Y-84100062D01*
X99843088Y-84090992D01*
X99838916Y-84083007D01*
X99824626Y-84059789D01*
X99786296Y-84011060D01*
X99730497Y-83944947D01*
X99689420Y-83898126D01*
X99622784Y-83820186D01*
X99566819Y-83749104D01*
X99529463Y-83695243D01*
X99519689Y-83676614D01*
X99508938Y-83614899D01*
X99523971Y-83569818D01*
X99556583Y-83554314D01*
X99612280Y-83568914D01*
X99685750Y-83606792D01*
X99762608Y-83659066D01*
X99828469Y-83716856D01*
X99839869Y-83729218D01*
X99891261Y-83779717D01*
X99921436Y-83792154D01*
X99928167Y-83767240D01*
X99909733Y-83706938D01*
X99889057Y-83652009D01*
X99859560Y-83568728D01*
X99826483Y-83471993D01*
X99814468Y-83436021D01*
X99776000Y-83299056D01*
X99761524Y-83194458D01*
X99770579Y-83123839D01*
X99802705Y-83088811D01*
X99857443Y-83090984D01*
G37*
G36*
X103003130Y-79310755D02*
G01*
X102991604Y-79334170D01*
X102947311Y-79368146D01*
X102874568Y-79408553D01*
X102857760Y-79416677D01*
X102760079Y-79460048D01*
X102697190Y-79480681D01*
X102665088Y-79479571D01*
X102658790Y-79466089D01*
X102677526Y-79448851D01*
X102725627Y-79419326D01*
X102790933Y-79383771D01*
X102861284Y-79348444D01*
X102924520Y-79319602D01*
X102968479Y-79303505D01*
X102977573Y-79302032D01*
X103003130Y-79310755D01*
G37*
G36*
X101321846Y-80036163D02*
G01*
X101389853Y-80052894D01*
X101467383Y-80075878D01*
X101542046Y-80101105D01*
X101601452Y-80124567D01*
X101633211Y-80142252D01*
X101635513Y-80146119D01*
X101619796Y-80172430D01*
X101579225Y-80218052D01*
X101523667Y-80272924D01*
X101462992Y-80326985D01*
X101438698Y-80346761D01*
X101380520Y-80382972D01*
X101337161Y-80392083D01*
X101317513Y-80372592D01*
X101317160Y-80367294D01*
X101332748Y-80338533D01*
X101372954Y-80291886D01*
X101411902Y-80253597D01*
X101464236Y-80200318D01*
X101479507Y-80171484D01*
X101469359Y-80166132D01*
X101427842Y-80156904D01*
X101368570Y-80133860D01*
X101305849Y-80103953D01*
X101253984Y-80074140D01*
X101227281Y-80051378D01*
X101226202Y-80047903D01*
X101245446Y-80033523D01*
X101275753Y-80029695D01*
X101321846Y-80036163D01*
G37*
G36*
X102281979Y-83171463D02*
G01*
X102292606Y-83186495D01*
X102301651Y-83218645D01*
X102310025Y-83273721D01*
X102318641Y-83357529D01*
X102328412Y-83475877D01*
X102338541Y-83611163D01*
X102350176Y-83775717D01*
X102357848Y-83900095D01*
X102361625Y-83989425D01*
X102361573Y-84048830D01*
X102357760Y-84083437D01*
X102350255Y-84098370D01*
X102344978Y-84100062D01*
X102337079Y-84078650D01*
X102327058Y-84019511D01*
X102315916Y-83930288D01*
X102304653Y-83818625D01*
X102298084Y-83741915D01*
X102287192Y-83609344D01*
X102276400Y-83483945D01*
X102266693Y-83376750D01*
X102259055Y-83298787D01*
X102256504Y-83275756D01*
X102252616Y-83201240D01*
X102263712Y-83169102D01*
X102268856Y-83167743D01*
X102281979Y-83171463D01*
G37*
G36*
X102725262Y-82870625D02*
G01*
X102727008Y-82889366D01*
X102714806Y-82944246D01*
X102682923Y-83016357D01*
X102638442Y-83094661D01*
X102588448Y-83168121D01*
X102540022Y-83225701D01*
X102500250Y-83256363D01*
X102489964Y-83258696D01*
X102461797Y-83245741D01*
X102407656Y-83211172D01*
X102337369Y-83161426D01*
X102307718Y-83139314D01*
X102214235Y-83064644D01*
X102156745Y-83009597D01*
X102136273Y-82975355D01*
X102153844Y-82963104D01*
X102155243Y-82963088D01*
X102183636Y-82976993D01*
X102233784Y-83013099D01*
X102283407Y-83053889D01*
X102374236Y-83127674D01*
X102444545Y-83169222D01*
X102500143Y-83176330D01*
X102546841Y-83146795D01*
X102590448Y-83078415D01*
X102636776Y-82968986D01*
X102657841Y-82911924D01*
X102683330Y-82865237D01*
X102708985Y-82850432D01*
X102725262Y-82870625D01*
G37*
G36*
X101151128Y-79427522D02*
G01*
X101152299Y-79427839D01*
X101221754Y-79444679D01*
X101289721Y-79458728D01*
X101341875Y-79474235D01*
X101368708Y-79493484D01*
X101369310Y-79495317D01*
X101354704Y-79514174D01*
X101309860Y-79521523D01*
X101248512Y-79517454D01*
X101184396Y-79502061D01*
X101163669Y-79493937D01*
X101110732Y-79463078D01*
X101090122Y-79436642D01*
X101103151Y-79422250D01*
X101151128Y-79427522D01*
G37*
G36*
X101959692Y-80911144D02*
G01*
X101964055Y-80873332D01*
X101993954Y-80872650D01*
X102050497Y-80908140D01*
X102061358Y-80916535D01*
X102143592Y-80954029D01*
X102216956Y-80962014D01*
X102329433Y-80951172D01*
X102417233Y-80914756D01*
X102473597Y-80870110D01*
X102513405Y-80838214D01*
X102537143Y-80838806D01*
X102547152Y-80850871D01*
X102567696Y-80922294D01*
X102555112Y-81005311D01*
X102515041Y-81087742D01*
X102453124Y-81157403D01*
X102386458Y-81197908D01*
X102313792Y-81224240D01*
X102262382Y-81231582D01*
X102212369Y-81220382D01*
X102169891Y-81202787D01*
X102071388Y-81135074D01*
X101999573Y-81035161D01*
X101990166Y-81012323D01*
X102053254Y-81012323D01*
X102057227Y-81033037D01*
X102065163Y-81048487D01*
X102126958Y-81119759D01*
X102212610Y-81159061D01*
X102311168Y-81163696D01*
X102407890Y-81132955D01*
X102469155Y-81078154D01*
X102499985Y-81017734D01*
X102515752Y-80951564D01*
X102508268Y-80921852D01*
X102478399Y-80930174D01*
X102459958Y-80944878D01*
X102391169Y-80984143D01*
X102296445Y-81010694D01*
X102194506Y-81020436D01*
X102134622Y-81016039D01*
X102076054Y-81008058D01*
X102053254Y-81012323D01*
X101990166Y-81012323D01*
X101979755Y-80987045D01*
X101959692Y-80911144D01*
G37*
G36*
X103041579Y-79856450D02*
G01*
X103034647Y-79883050D01*
X102988213Y-79928459D01*
X102916592Y-79982964D01*
X102855659Y-80030131D01*
X102824135Y-80062367D01*
X102826398Y-80075127D01*
X102827758Y-80075174D01*
X102863209Y-80086665D01*
X102921249Y-80116377D01*
X102990579Y-80157163D01*
X103059900Y-80201881D01*
X103117912Y-80243386D01*
X103153316Y-80274533D01*
X103159058Y-80284652D01*
X103155860Y-80296114D01*
X103141757Y-80297966D01*
X103109982Y-80287794D01*
X103053768Y-80263184D01*
X102966351Y-80221722D01*
X102920294Y-80199473D01*
X102831256Y-80156504D01*
X102756864Y-80120873D01*
X102707104Y-80097349D01*
X102692899Y-80090892D01*
X102687750Y-80070927D01*
X102713419Y-80035003D01*
X102761256Y-79989758D01*
X102822611Y-79941831D01*
X102888836Y-79897863D01*
X102951281Y-79864491D01*
X103001296Y-79848357D01*
X103009616Y-79847779D01*
X103041579Y-79856450D01*
G37*
G36*
X102701719Y-83137122D02*
G01*
X102714410Y-83173428D01*
X102722310Y-83220471D01*
X102733773Y-83301889D01*
X102747654Y-83408116D01*
X102762811Y-83529588D01*
X102778098Y-83656739D01*
X102792374Y-83780005D01*
X102804494Y-83889820D01*
X102813314Y-83976619D01*
X102817690Y-84030838D01*
X102817966Y-84039486D01*
X102811876Y-84083990D01*
X102799133Y-84100062D01*
X102790454Y-84078652D01*
X102777706Y-84019126D01*
X102762105Y-83928537D01*
X102744869Y-83813939D01*
X102727553Y-83685066D01*
X102709992Y-83547364D01*
X102693709Y-83420549D01*
X102679846Y-83313436D01*
X102669541Y-83234839D01*
X102664310Y-83196168D01*
X102665287Y-83143036D01*
X102680983Y-83121890D01*
X102701719Y-83137122D01*
G37*
%TD*%
M02*
