%TF.GenerationSoftware,KiCad,Pcbnew,(6.0.5-0)*%
%TF.CreationDate,2022-06-14T22:50:01+09:00*%
%TF.ProjectId,tinypicotrio,74696e79-7069-4636-9f74-72696f2e6b69,rev?*%
%TF.SameCoordinates,Original*%
%TF.FileFunction,Soldermask,Bot*%
%TF.FilePolarity,Negative*%
%FSLAX46Y46*%
G04 Gerber Fmt 4.6, Leading zero omitted, Abs format (unit mm)*
G04 Created by KiCad (PCBNEW (6.0.5-0)) date 2022-06-14 22:50:01*
%MOMM*%
%LPD*%
G01*
G04 APERTURE LIST*
%ADD10C,0.150000*%
%ADD11C,5.000000*%
%ADD12C,1.800000*%
G04 APERTURE END LIST*
D10*
X152058142Y-100585380D02*
X151486714Y-100585380D01*
X151772428Y-101585380D02*
X151772428Y-100585380D01*
X151153380Y-101585380D02*
X151153380Y-100918714D01*
X151153380Y-100585380D02*
X151201000Y-100633000D01*
X151153380Y-100680619D01*
X151105761Y-100633000D01*
X151153380Y-100585380D01*
X151153380Y-100680619D01*
X150677190Y-100918714D02*
X150677190Y-101585380D01*
X150677190Y-101013952D02*
X150629571Y-100966333D01*
X150534333Y-100918714D01*
X150391476Y-100918714D01*
X150296238Y-100966333D01*
X150248619Y-101061571D01*
X150248619Y-101585380D01*
X149867666Y-100918714D02*
X149629571Y-101585380D01*
X149391476Y-100918714D02*
X149629571Y-101585380D01*
X149724809Y-101823476D01*
X149772428Y-101871095D01*
X149867666Y-101918714D01*
X149010523Y-101585380D02*
X149010523Y-100585380D01*
X148629571Y-100585380D01*
X148534333Y-100633000D01*
X148486714Y-100680619D01*
X148439095Y-100775857D01*
X148439095Y-100918714D01*
X148486714Y-101013952D01*
X148534333Y-101061571D01*
X148629571Y-101109190D01*
X149010523Y-101109190D01*
X148010523Y-101585380D02*
X148010523Y-100918714D01*
X148010523Y-100585380D02*
X148058142Y-100633000D01*
X148010523Y-100680619D01*
X147962904Y-100633000D01*
X148010523Y-100585380D01*
X148010523Y-100680619D01*
X147105761Y-101537761D02*
X147201000Y-101585380D01*
X147391476Y-101585380D01*
X147486714Y-101537761D01*
X147534333Y-101490142D01*
X147581952Y-101394904D01*
X147581952Y-101109190D01*
X147534333Y-101013952D01*
X147486714Y-100966333D01*
X147391476Y-100918714D01*
X147201000Y-100918714D01*
X147105761Y-100966333D01*
X146534333Y-101585380D02*
X146629571Y-101537761D01*
X146677190Y-101490142D01*
X146724809Y-101394904D01*
X146724809Y-101109190D01*
X146677190Y-101013952D01*
X146629571Y-100966333D01*
X146534333Y-100918714D01*
X146391476Y-100918714D01*
X146296238Y-100966333D01*
X146248619Y-101013952D01*
X146201000Y-101109190D01*
X146201000Y-101394904D01*
X146248619Y-101490142D01*
X146296238Y-101537761D01*
X146391476Y-101585380D01*
X146534333Y-101585380D01*
X145915285Y-100585380D02*
X145343857Y-100585380D01*
X145629571Y-101585380D02*
X145629571Y-100585380D01*
X145010523Y-101585380D02*
X145010523Y-100918714D01*
X145010523Y-101109190D02*
X144962904Y-101013952D01*
X144915285Y-100966333D01*
X144820047Y-100918714D01*
X144724809Y-100918714D01*
X144391476Y-101585380D02*
X144391476Y-100918714D01*
X144391476Y-100585380D02*
X144439095Y-100633000D01*
X144391476Y-100680619D01*
X144343857Y-100633000D01*
X144391476Y-100585380D01*
X144391476Y-100680619D01*
X143772428Y-101585380D02*
X143867666Y-101537761D01*
X143915285Y-101490142D01*
X143962904Y-101394904D01*
X143962904Y-101109190D01*
X143915285Y-101013952D01*
X143867666Y-100966333D01*
X143772428Y-100918714D01*
X143629571Y-100918714D01*
X143534333Y-100966333D01*
X143486714Y-101013952D01*
X143439095Y-101109190D01*
X143439095Y-101394904D01*
X143486714Y-101490142D01*
X143534333Y-101537761D01*
X143629571Y-101585380D01*
X143772428Y-101585380D01*
X151201000Y-103195380D02*
X151534333Y-102719190D01*
X151772428Y-103195380D02*
X151772428Y-102195380D01*
X151391476Y-102195380D01*
X151296238Y-102243000D01*
X151248619Y-102290619D01*
X151201000Y-102385857D01*
X151201000Y-102528714D01*
X151248619Y-102623952D01*
X151296238Y-102671571D01*
X151391476Y-102719190D01*
X151772428Y-102719190D01*
X150391476Y-103147761D02*
X150486714Y-103195380D01*
X150677190Y-103195380D01*
X150772428Y-103147761D01*
X150820047Y-103052523D01*
X150820047Y-102671571D01*
X150772428Y-102576333D01*
X150677190Y-102528714D01*
X150486714Y-102528714D01*
X150391476Y-102576333D01*
X150343857Y-102671571D01*
X150343857Y-102766809D01*
X150820047Y-102862047D01*
X150010523Y-102528714D02*
X149772428Y-103195380D01*
X149534333Y-102528714D01*
X149153380Y-103100142D02*
X149105761Y-103147761D01*
X149153380Y-103195380D01*
X149201000Y-103147761D01*
X149153380Y-103100142D01*
X149153380Y-103195380D01*
X148153380Y-103195380D02*
X148724809Y-103195380D01*
X148439095Y-103195380D02*
X148439095Y-102195380D01*
X148534333Y-102338238D01*
X148629571Y-102433476D01*
X148724809Y-102481095D01*
X147010523Y-102290619D02*
X146962904Y-102243000D01*
X146867666Y-102195380D01*
X146629571Y-102195380D01*
X146534333Y-102243000D01*
X146486714Y-102290619D01*
X146439095Y-102385857D01*
X146439095Y-102481095D01*
X146486714Y-102623952D01*
X147058142Y-103195380D01*
X146439095Y-103195380D01*
X145820047Y-102195380D02*
X145724809Y-102195380D01*
X145629571Y-102243000D01*
X145581952Y-102290619D01*
X145534333Y-102385857D01*
X145486714Y-102576333D01*
X145486714Y-102814428D01*
X145534333Y-103004904D01*
X145581952Y-103100142D01*
X145629571Y-103147761D01*
X145724809Y-103195380D01*
X145820047Y-103195380D01*
X145915285Y-103147761D01*
X145962904Y-103100142D01*
X146010523Y-103004904D01*
X146058142Y-102814428D01*
X146058142Y-102576333D01*
X146010523Y-102385857D01*
X145962904Y-102290619D01*
X145915285Y-102243000D01*
X145820047Y-102195380D01*
X145105761Y-102290619D02*
X145058142Y-102243000D01*
X144962904Y-102195380D01*
X144724809Y-102195380D01*
X144629571Y-102243000D01*
X144581952Y-102290619D01*
X144534333Y-102385857D01*
X144534333Y-102481095D01*
X144581952Y-102623952D01*
X145153380Y-103195380D01*
X144534333Y-103195380D01*
X144153380Y-102290619D02*
X144105761Y-102243000D01*
X144010523Y-102195380D01*
X143772428Y-102195380D01*
X143677190Y-102243000D01*
X143629571Y-102290619D01*
X143581952Y-102385857D01*
X143581952Y-102481095D01*
X143629571Y-102623952D01*
X144201000Y-103195380D01*
X143581952Y-103195380D01*
X150820047Y-104329190D02*
X150867666Y-104281571D01*
X150962904Y-104233952D01*
X151058142Y-104233952D01*
X151153380Y-104281571D01*
X151201000Y-104329190D01*
X151248619Y-104424428D01*
X151248619Y-104519666D01*
X151201000Y-104614904D01*
X151153380Y-104662523D01*
X151058142Y-104710142D01*
X150962904Y-104710142D01*
X150867666Y-104662523D01*
X150820047Y-104614904D01*
X150820047Y-104233952D02*
X150820047Y-104614904D01*
X150772428Y-104662523D01*
X150724809Y-104662523D01*
X150629571Y-104614904D01*
X150581952Y-104519666D01*
X150581952Y-104281571D01*
X150677190Y-104138714D01*
X150820047Y-104043476D01*
X151010523Y-103995857D01*
X151201000Y-104043476D01*
X151343857Y-104138714D01*
X151439095Y-104281571D01*
X151486714Y-104472047D01*
X151439095Y-104662523D01*
X151343857Y-104805380D01*
X151201000Y-104900619D01*
X151010523Y-104948238D01*
X150820047Y-104900619D01*
X150677190Y-104805380D01*
X150201000Y-104519666D02*
X149724809Y-104519666D01*
X150296238Y-104805380D02*
X149962904Y-103805380D01*
X149629571Y-104805380D01*
X149296238Y-104805380D02*
X149296238Y-103805380D01*
X149201000Y-104424428D02*
X148915285Y-104805380D01*
X148915285Y-104138714D02*
X149296238Y-104519666D01*
X148486714Y-104805380D02*
X148486714Y-103805380D01*
X148391476Y-104424428D02*
X148105761Y-104805380D01*
X148105761Y-104138714D02*
X148486714Y-104519666D01*
X147677190Y-104805380D02*
X147677190Y-104138714D01*
X147677190Y-103805380D02*
X147724809Y-103853000D01*
X147677190Y-103900619D01*
X147629571Y-103853000D01*
X147677190Y-103805380D01*
X147677190Y-103900619D01*
X146820047Y-104757761D02*
X146915285Y-104805380D01*
X147105761Y-104805380D01*
X147201000Y-104757761D01*
X147248619Y-104662523D01*
X147248619Y-104281571D01*
X147201000Y-104186333D01*
X147105761Y-104138714D01*
X146915285Y-104138714D01*
X146820047Y-104186333D01*
X146772428Y-104281571D01*
X146772428Y-104376809D01*
X147248619Y-104472047D01*
X146391476Y-104757761D02*
X146296238Y-104805380D01*
X146105761Y-104805380D01*
X146010523Y-104757761D01*
X145962904Y-104662523D01*
X145962904Y-104614904D01*
X146010523Y-104519666D01*
X146105761Y-104472047D01*
X146248619Y-104472047D01*
X146343857Y-104424428D01*
X146391476Y-104329190D01*
X146391476Y-104281571D01*
X146343857Y-104186333D01*
X146248619Y-104138714D01*
X146105761Y-104138714D01*
X146010523Y-104186333D01*
X145391476Y-104805380D02*
X145486714Y-104757761D01*
X145534333Y-104710142D01*
X145581952Y-104614904D01*
X145581952Y-104329190D01*
X145534333Y-104233952D01*
X145486714Y-104186333D01*
X145391476Y-104138714D01*
X145248619Y-104138714D01*
X145153380Y-104186333D01*
X145105761Y-104233952D01*
X145058142Y-104329190D01*
X145058142Y-104614904D01*
X145105761Y-104710142D01*
X145153380Y-104757761D01*
X145248619Y-104805380D01*
X145391476Y-104805380D01*
X144772428Y-104138714D02*
X144391476Y-104138714D01*
X144629571Y-104805380D02*
X144629571Y-103948238D01*
X144581952Y-103853000D01*
X144486714Y-103805380D01*
X144391476Y-103805380D01*
X144201000Y-104138714D02*
X143820047Y-104138714D01*
X144058142Y-103805380D02*
X144058142Y-104662523D01*
X144010523Y-104757761D01*
X143915285Y-104805380D01*
X143820047Y-104805380D01*
D11*
%TO.C,REF\u002A\u002A*%
X147701000Y-89408000D03*
%TD*%
%TO.C,REF\u002A\u002A*%
X166878000Y-125730000D03*
%TD*%
D12*
%TO.C,SW3*%
X159258000Y-112559000D03*
X174498000Y-125259000D03*
X159258000Y-127799000D03*
X174498000Y-110019000D03*
X174498000Y-127799000D03*
X159258000Y-125259000D03*
X159258000Y-110019000D03*
X174498000Y-112559000D03*
%TD*%
D11*
%TO.C,REF\u002A\u002A*%
X128524000Y-125730000D03*
%TD*%
D12*
%TO.C,SW1*%
X136144000Y-125259000D03*
X120904000Y-112559000D03*
X120904000Y-127799000D03*
X136144000Y-110019000D03*
X136144000Y-112559000D03*
X120904000Y-125259000D03*
X136144000Y-127799000D03*
X120904000Y-110019000D03*
%TD*%
%TO.C,SW2*%
X140081000Y-112612000D03*
X155321000Y-125312000D03*
X155321000Y-110072000D03*
X140081000Y-127852000D03*
X155321000Y-127852000D03*
X140081000Y-125312000D03*
X155321000Y-112612000D03*
X140081000Y-110072000D03*
%TD*%
%TO.C,U1*%
X155321000Y-87794000D03*
X155321000Y-90334000D03*
X155321000Y-92874000D03*
X155321000Y-95414000D03*
X155321000Y-97954000D03*
X155321000Y-100494000D03*
X155321000Y-103034000D03*
X155321000Y-105574000D03*
X140081000Y-105574000D03*
X140081000Y-103034000D03*
X140081000Y-100494000D03*
X140081000Y-97954000D03*
X140081000Y-95414000D03*
X140081000Y-92874000D03*
X140081000Y-90334000D03*
X140081000Y-87794000D03*
%TD*%
M02*
