%TF.GenerationSoftware,KiCad,Pcbnew,(6.0.5-0)*%
%TF.CreationDate,2022-06-14T22:50:01+09:00*%
%TF.ProjectId,tinypicotrio,74696e79-7069-4636-9f74-72696f2e6b69,rev?*%
%TF.SameCoordinates,Original*%
%TF.FileFunction,Copper,L1,Top*%
%TF.FilePolarity,Positive*%
%FSLAX46Y46*%
G04 Gerber Fmt 4.6, Leading zero omitted, Abs format (unit mm)*
G04 Created by KiCad (PCBNEW (6.0.5-0)) date 2022-06-14 22:50:01*
%MOMM*%
%LPD*%
G01*
G04 APERTURE LIST*
%ADD10C,0.150000*%
%TA.AperFunction,NonConductor*%
%ADD11C,0.150000*%
%TD*%
%TA.AperFunction,ComponentPad*%
%ADD12C,5.000000*%
%TD*%
%TA.AperFunction,ComponentPad*%
%ADD13C,1.800000*%
%TD*%
%TA.AperFunction,Conductor*%
%ADD14C,0.250000*%
%TD*%
G04 APERTURE END LIST*
D10*
D11*
X127809714Y-110879000D02*
X127714476Y-110831380D01*
X127571619Y-110831380D01*
X127428761Y-110879000D01*
X127333523Y-110974238D01*
X127285904Y-111069476D01*
X127238285Y-111259952D01*
X127238285Y-111402809D01*
X127285904Y-111593285D01*
X127333523Y-111688523D01*
X127428761Y-111783761D01*
X127571619Y-111831380D01*
X127666857Y-111831380D01*
X127809714Y-111783761D01*
X127857333Y-111736142D01*
X127857333Y-111402809D01*
X127666857Y-111402809D01*
X128285904Y-111831380D02*
X128285904Y-110831380D01*
X128666857Y-110831380D01*
X128762095Y-110879000D01*
X128809714Y-110926619D01*
X128857333Y-111021857D01*
X128857333Y-111164714D01*
X128809714Y-111259952D01*
X128762095Y-111307571D01*
X128666857Y-111355190D01*
X128285904Y-111355190D01*
X129714476Y-111164714D02*
X129714476Y-111831380D01*
X129476380Y-110783761D02*
X129238285Y-111498047D01*
X129857333Y-111498047D01*
D10*
D11*
X146986714Y-110879000D02*
X146891476Y-110831380D01*
X146748619Y-110831380D01*
X146605761Y-110879000D01*
X146510523Y-110974238D01*
X146462904Y-111069476D01*
X146415285Y-111259952D01*
X146415285Y-111402809D01*
X146462904Y-111593285D01*
X146510523Y-111688523D01*
X146605761Y-111783761D01*
X146748619Y-111831380D01*
X146843857Y-111831380D01*
X146986714Y-111783761D01*
X147034333Y-111736142D01*
X147034333Y-111402809D01*
X146843857Y-111402809D01*
X147462904Y-111831380D02*
X147462904Y-110831380D01*
X147843857Y-110831380D01*
X147939095Y-110879000D01*
X147986714Y-110926619D01*
X148034333Y-111021857D01*
X148034333Y-111164714D01*
X147986714Y-111259952D01*
X147939095Y-111307571D01*
X147843857Y-111355190D01*
X147462904Y-111355190D01*
X148939095Y-110831380D02*
X148462904Y-110831380D01*
X148415285Y-111307571D01*
X148462904Y-111259952D01*
X148558142Y-111212333D01*
X148796238Y-111212333D01*
X148891476Y-111259952D01*
X148939095Y-111307571D01*
X148986714Y-111402809D01*
X148986714Y-111640904D01*
X148939095Y-111736142D01*
X148891476Y-111783761D01*
X148796238Y-111831380D01*
X148558142Y-111831380D01*
X148462904Y-111783761D01*
X148415285Y-111736142D01*
D10*
D11*
X166163714Y-110879000D02*
X166068476Y-110831380D01*
X165925619Y-110831380D01*
X165782761Y-110879000D01*
X165687523Y-110974238D01*
X165639904Y-111069476D01*
X165592285Y-111259952D01*
X165592285Y-111402809D01*
X165639904Y-111593285D01*
X165687523Y-111688523D01*
X165782761Y-111783761D01*
X165925619Y-111831380D01*
X166020857Y-111831380D01*
X166163714Y-111783761D01*
X166211333Y-111736142D01*
X166211333Y-111402809D01*
X166020857Y-111402809D01*
X166639904Y-111831380D02*
X166639904Y-110831380D01*
X167020857Y-110831380D01*
X167116095Y-110879000D01*
X167163714Y-110926619D01*
X167211333Y-111021857D01*
X167211333Y-111164714D01*
X167163714Y-111259952D01*
X167116095Y-111307571D01*
X167020857Y-111355190D01*
X166639904Y-111355190D01*
X168068476Y-110831380D02*
X167878000Y-110831380D01*
X167782761Y-110879000D01*
X167735142Y-110926619D01*
X167639904Y-111069476D01*
X167592285Y-111259952D01*
X167592285Y-111640904D01*
X167639904Y-111736142D01*
X167687523Y-111783761D01*
X167782761Y-111831380D01*
X167973238Y-111831380D01*
X168068476Y-111783761D01*
X168116095Y-111736142D01*
X168163714Y-111640904D01*
X168163714Y-111402809D01*
X168116095Y-111307571D01*
X168068476Y-111259952D01*
X167973238Y-111212333D01*
X167782761Y-111212333D01*
X167687523Y-111259952D01*
X167639904Y-111307571D01*
X167592285Y-111402809D01*
D12*
%TO.P,REF\u002A\u002A,1*%
%TO.N,N/C*%
X147701000Y-89408000D03*
%TD*%
%TO.P,REF\u002A\u002A,1*%
%TO.N,N/C*%
X166878000Y-125730000D03*
%TD*%
D13*
%TO.P,SW3,1,1*%
%TO.N,Net-(SW3-Pad1)*%
X159258000Y-112559000D03*
X174498000Y-125259000D03*
%TO.P,SW3,2,2*%
%TO.N,GND*%
X159258000Y-127799000D03*
X174498000Y-110019000D03*
%TO.P,SW3,3*%
%TO.N,N/C*%
X174498000Y-127799000D03*
X159258000Y-125259000D03*
X159258000Y-110019000D03*
X174498000Y-112559000D03*
%TD*%
D12*
%TO.P,REF\u002A\u002A,1*%
%TO.N,N/C*%
X128524000Y-125730000D03*
%TD*%
D13*
%TO.P,SW1,1,1*%
%TO.N,Net-(SW1-Pad1)*%
X136144000Y-125259000D03*
X120904000Y-112559000D03*
%TO.P,SW1,2,2*%
%TO.N,GND*%
X120904000Y-127799000D03*
X136144000Y-110019000D03*
%TO.P,SW1,3*%
%TO.N,N/C*%
X136144000Y-112559000D03*
X120904000Y-125259000D03*
X136144000Y-127799000D03*
X120904000Y-110019000D03*
%TD*%
%TO.P,SW2,1,1*%
%TO.N,Net-(SW2-Pad1)*%
X140081000Y-112612000D03*
X155321000Y-125312000D03*
%TO.P,SW2,2,2*%
%TO.N,GND*%
X155321000Y-110072000D03*
X140081000Y-127852000D03*
%TO.P,SW2,3*%
%TO.N,N/C*%
X155321000Y-127852000D03*
X140081000Y-125312000D03*
X155321000Y-112612000D03*
X140081000Y-110072000D03*
%TD*%
%TO.P,U1,1,VBUS*%
%TO.N,Net-(U1-Pad1)*%
X155321000Y-87794000D03*
%TO.P,U1,2,GND*%
%TO.N,unconnected-(U1-Pad2)*%
X155321000Y-90334000D03*
%TO.P,U1,3,3V3*%
%TO.N,unconnected-(U1-Pad3)*%
X155321000Y-92874000D03*
%TO.P,U1,4,GP29*%
%TO.N,unconnected-(U1-Pad4)*%
X155321000Y-95414000D03*
%TO.P,U1,5,GP28*%
%TO.N,unconnected-(U1-Pad5)*%
X155321000Y-97954000D03*
%TO.P,U1,6,GP27*%
%TO.N,unconnected-(U1-Pad6)*%
X155321000Y-100494000D03*
%TO.P,U1,7,GP26*%
%TO.N,unconnected-(U1-Pad7)*%
X155321000Y-103034000D03*
%TO.P,U1,8,GND*%
%TO.N,GND*%
X155321000Y-105574000D03*
%TO.P,U1,9,GP7*%
%TO.N,unconnected-(U1-Pad9)*%
X140081000Y-105574000D03*
%TO.P,U1,10,GP6*%
%TO.N,Net-(SW3-Pad1)*%
X140081000Y-103034000D03*
%TO.P,U1,11,GP5*%
%TO.N,Net-(SW2-Pad1)*%
X140081000Y-100494000D03*
%TO.P,U1,12,GP4*%
%TO.N,Net-(SW1-Pad1)*%
X140081000Y-97954000D03*
%TO.P,U1,13,GP3*%
%TO.N,unconnected-(U1-Pad13)*%
X140081000Y-95414000D03*
%TO.P,U1,14,GP2*%
%TO.N,unconnected-(U1-Pad14)*%
X140081000Y-92874000D03*
%TO.P,U1,15,GP1*%
%TO.N,unconnected-(U1-Pad15)*%
X140081000Y-90334000D03*
%TO.P,U1,16,GP0*%
%TO.N,unconnected-(U1-Pad16)*%
X140081000Y-87794000D03*
%TD*%
D14*
%TO.N,Net-(SW1-Pad1)*%
X134493000Y-121666000D02*
X136144000Y-123317000D01*
X137414000Y-107823000D02*
X137414000Y-98806000D01*
X134493000Y-108966000D02*
X134493000Y-121666000D01*
X136144000Y-123317000D02*
X136144000Y-125259000D01*
X135128000Y-108331000D02*
X134493000Y-108966000D01*
X130900000Y-112559000D02*
X134493000Y-108966000D01*
X138266000Y-97954000D02*
X140081000Y-97954000D01*
X137414000Y-98806000D02*
X138266000Y-97954000D01*
X120904000Y-112559000D02*
X130900000Y-112559000D01*
X137414000Y-107823000D02*
X136906000Y-108331000D01*
X136906000Y-108331000D02*
X135128000Y-108331000D01*
%TO.N,Net-(SW2-Pad1)*%
X141695000Y-112612000D02*
X142875000Y-113792000D01*
X144616000Y-125312000D02*
X155321000Y-125312000D01*
X142875000Y-113792000D02*
X142875000Y-123571000D01*
X140081000Y-112612000D02*
X141695000Y-112612000D01*
X138901000Y-100494000D02*
X138176000Y-101219000D01*
X138176000Y-101219000D02*
X138176000Y-111633000D01*
X138176000Y-111633000D02*
X139155000Y-112612000D01*
X140081000Y-100494000D02*
X138901000Y-100494000D01*
X142875000Y-123571000D02*
X144616000Y-125312000D01*
X139155000Y-112612000D02*
X140081000Y-112612000D01*
%TO.N,Net-(SW3-Pad1)*%
X159258000Y-112559000D02*
X159258000Y-114681000D01*
X159385000Y-114808000D02*
X172974000Y-114808000D01*
X172974000Y-114808000D02*
X174498000Y-116332000D01*
X141388000Y-103034000D02*
X142113000Y-103759000D01*
X142113000Y-103759000D02*
X142113000Y-111252000D01*
X145669000Y-114808000D02*
X159385000Y-114808000D01*
X159258000Y-114681000D02*
X159385000Y-114808000D01*
X174498000Y-116332000D02*
X174498000Y-125259000D01*
X140081000Y-103034000D02*
X141388000Y-103034000D01*
X142113000Y-111252000D02*
X145669000Y-114808000D01*
%TD*%
M02*
