M48
; DRILL file {KiCad (6.0.5-0)} date 
; FORMAT={-:-/ absolute / inch / decimal}
; #@! TF.CreationDate,2022-06-14T22:49:59+09:00
; #@! TF.GenerationSoftware,Kicad,Pcbnew,(6.0.5-0)
; #@! TF.FileFunction,Plated,1,2,PTH
FMAT,2
INCH
; #@! TA.AperFunction,Plated,PTH,ComponentDrill
T1C0.0402
; #@! TA.AperFunction,Plated,PTH,ComponentDrill
T2C0.0984
%
G90
G05
T1
X4.76Y-4.3315
X4.76Y-4.4315
X4.76Y-4.9315
X4.76Y-5.0315
X5.36Y-4.3315
X5.36Y-4.4315
X5.36Y-4.9315
X5.36Y-5.0315
X5.515Y-3.4565
X5.515Y-3.5565
X5.515Y-3.6565
X5.515Y-3.7565
X5.515Y-3.8565
X5.515Y-3.9565
X5.515Y-4.0565
X5.515Y-4.1565
X5.515Y-4.3335
X5.515Y-4.4335
X5.515Y-4.9335
X5.515Y-5.0335
X6.115Y-3.4565
X6.115Y-3.5565
X6.115Y-3.6565
X6.115Y-3.7565
X6.115Y-3.8565
X6.115Y-3.9565
X6.115Y-4.0565
X6.115Y-4.1565
X6.115Y-4.3335
X6.115Y-4.4335
X6.115Y-4.9335
X6.115Y-5.0335
X6.27Y-4.3315
X6.27Y-4.4315
X6.27Y-4.9315
X6.27Y-5.0315
X6.87Y-4.3315
X6.87Y-4.4315
X6.87Y-4.9315
X6.87Y-5.0315
T2
X5.06Y-4.95
X5.815Y-3.52
X6.57Y-4.95
T0
M30
