%TF.GenerationSoftware,KiCad,Pcbnew,(5.99.0-13263-g43c85771eb)*%
%TF.CreationDate,2021-11-13T23:18:43+09:00*%
%TF.ProjectId,tinypicokey,74696e79-7069-4636-9f6b-65792e6b6963,rev?*%
%TF.SameCoordinates,Original*%
%TF.FileFunction,Legend,Bot*%
%TF.FilePolarity,Positive*%
%FSLAX46Y46*%
G04 Gerber Fmt 4.6, Leading zero omitted, Abs format (unit mm)*
G04 Created by KiCad (PCBNEW (5.99.0-13263-g43c85771eb)) date 2021-11-13 23:18:43*
%MOMM*%
%LPD*%
G01*
G04 APERTURE LIST*
%ADD10C,0.150000*%
G04 APERTURE END LIST*
D10*
X106647714Y-78842380D02*
X106076285Y-78842380D01*
X106362000Y-79842380D02*
X106362000Y-78842380D01*
X105742952Y-79842380D02*
X105742952Y-79175714D01*
X105742952Y-78842380D02*
X105790571Y-78890000D01*
X105742952Y-78937619D01*
X105695333Y-78890000D01*
X105742952Y-78842380D01*
X105742952Y-78937619D01*
X105266761Y-79175714D02*
X105266761Y-79842380D01*
X105266761Y-79270952D02*
X105219142Y-79223333D01*
X105123904Y-79175714D01*
X104981047Y-79175714D01*
X104885809Y-79223333D01*
X104838190Y-79318571D01*
X104838190Y-79842380D01*
X104457238Y-79175714D02*
X104219142Y-79842380D01*
X103981047Y-79175714D02*
X104219142Y-79842380D01*
X104314380Y-80080476D01*
X104362000Y-80128095D01*
X104457238Y-80175714D01*
X103600095Y-79842380D02*
X103600095Y-78842380D01*
X103219142Y-78842380D01*
X103123904Y-78890000D01*
X103076285Y-78937619D01*
X103028666Y-79032857D01*
X103028666Y-79175714D01*
X103076285Y-79270952D01*
X103123904Y-79318571D01*
X103219142Y-79366190D01*
X103600095Y-79366190D01*
X102600095Y-79842380D02*
X102600095Y-79175714D01*
X102600095Y-78842380D02*
X102647714Y-78890000D01*
X102600095Y-78937619D01*
X102552476Y-78890000D01*
X102600095Y-78842380D01*
X102600095Y-78937619D01*
X101695333Y-79794761D02*
X101790571Y-79842380D01*
X101981047Y-79842380D01*
X102076285Y-79794761D01*
X102123904Y-79747142D01*
X102171523Y-79651904D01*
X102171523Y-79366190D01*
X102123904Y-79270952D01*
X102076285Y-79223333D01*
X101981047Y-79175714D01*
X101790571Y-79175714D01*
X101695333Y-79223333D01*
X101123904Y-79842380D02*
X101219142Y-79794761D01*
X101266761Y-79747142D01*
X101314380Y-79651904D01*
X101314380Y-79366190D01*
X101266761Y-79270952D01*
X101219142Y-79223333D01*
X101123904Y-79175714D01*
X100981047Y-79175714D01*
X100885809Y-79223333D01*
X100838190Y-79270952D01*
X100790571Y-79366190D01*
X100790571Y-79651904D01*
X100838190Y-79747142D01*
X100885809Y-79794761D01*
X100981047Y-79842380D01*
X101123904Y-79842380D01*
X100362000Y-79842380D02*
X100362000Y-78842380D01*
X99790571Y-79842380D02*
X100219142Y-79270952D01*
X99790571Y-78842380D02*
X100362000Y-79413809D01*
X98981047Y-79794761D02*
X99076285Y-79842380D01*
X99266761Y-79842380D01*
X99361999Y-79794761D01*
X99409619Y-79699523D01*
X99409619Y-79318571D01*
X99361999Y-79223333D01*
X99266761Y-79175714D01*
X99076285Y-79175714D01*
X98981047Y-79223333D01*
X98933428Y-79318571D01*
X98933428Y-79413809D01*
X99409619Y-79509047D01*
X98600095Y-79175714D02*
X98361999Y-79842380D01*
X98123904Y-79175714D02*
X98361999Y-79842380D01*
X98457238Y-80080476D01*
X98504857Y-80128095D01*
X98600095Y-80175714D01*
X105862000Y-81452380D02*
X106195333Y-80976190D01*
X106433428Y-81452380D02*
X106433428Y-80452380D01*
X106052476Y-80452380D01*
X105957238Y-80500000D01*
X105909619Y-80547619D01*
X105862000Y-80642857D01*
X105862000Y-80785714D01*
X105909619Y-80880952D01*
X105957238Y-80928571D01*
X106052476Y-80976190D01*
X106433428Y-80976190D01*
X105052476Y-81404761D02*
X105147714Y-81452380D01*
X105338190Y-81452380D01*
X105433428Y-81404761D01*
X105481047Y-81309523D01*
X105481047Y-80928571D01*
X105433428Y-80833333D01*
X105338190Y-80785714D01*
X105147714Y-80785714D01*
X105052476Y-80833333D01*
X105004857Y-80928571D01*
X105004857Y-81023809D01*
X105481047Y-81119047D01*
X104671523Y-80785714D02*
X104433428Y-81452380D01*
X104195333Y-80785714D01*
X103814380Y-81357142D02*
X103766761Y-81404761D01*
X103814380Y-81452380D01*
X103862000Y-81404761D01*
X103814380Y-81357142D01*
X103814380Y-81452380D01*
X103385809Y-80547619D02*
X103338190Y-80500000D01*
X103242952Y-80452380D01*
X103004857Y-80452380D01*
X102909619Y-80500000D01*
X102862000Y-80547619D01*
X102814380Y-80642857D01*
X102814380Y-80738095D01*
X102862000Y-80880952D01*
X103433428Y-81452380D01*
X102814380Y-81452380D01*
X101671523Y-80547619D02*
X101623904Y-80500000D01*
X101528666Y-80452380D01*
X101290571Y-80452380D01*
X101195333Y-80500000D01*
X101147714Y-80547619D01*
X101100095Y-80642857D01*
X101100095Y-80738095D01*
X101147714Y-80880952D01*
X101719142Y-81452380D01*
X101100095Y-81452380D01*
X100481047Y-80452380D02*
X100385809Y-80452380D01*
X100290571Y-80500000D01*
X100242952Y-80547619D01*
X100195333Y-80642857D01*
X100147714Y-80833333D01*
X100147714Y-81071428D01*
X100195333Y-81261904D01*
X100242952Y-81357142D01*
X100290571Y-81404761D01*
X100385809Y-81452380D01*
X100481047Y-81452380D01*
X100576285Y-81404761D01*
X100623904Y-81357142D01*
X100671523Y-81261904D01*
X100719142Y-81071428D01*
X100719142Y-80833333D01*
X100671523Y-80642857D01*
X100623904Y-80547619D01*
X100576285Y-80500000D01*
X100481047Y-80452380D01*
X99766761Y-80547619D02*
X99719142Y-80500000D01*
X99623904Y-80452380D01*
X99385809Y-80452380D01*
X99290571Y-80500000D01*
X99242952Y-80547619D01*
X99195333Y-80642857D01*
X99195333Y-80738095D01*
X99242952Y-80880952D01*
X99814380Y-81452380D01*
X99195333Y-81452380D01*
X98242952Y-81452380D02*
X98814380Y-81452380D01*
X98528666Y-81452380D02*
X98528666Y-80452380D01*
X98623904Y-80595238D01*
X98719142Y-80690476D01*
X98814380Y-80738095D01*
X105481047Y-82586190D02*
X105528666Y-82538571D01*
X105623904Y-82490952D01*
X105719142Y-82490952D01*
X105814380Y-82538571D01*
X105862000Y-82586190D01*
X105909619Y-82681428D01*
X105909619Y-82776666D01*
X105862000Y-82871904D01*
X105814380Y-82919523D01*
X105719142Y-82967142D01*
X105623904Y-82967142D01*
X105528666Y-82919523D01*
X105481047Y-82871904D01*
X105481047Y-82490952D02*
X105481047Y-82871904D01*
X105433428Y-82919523D01*
X105385809Y-82919523D01*
X105290571Y-82871904D01*
X105242952Y-82776666D01*
X105242952Y-82538571D01*
X105338190Y-82395714D01*
X105481047Y-82300476D01*
X105671523Y-82252857D01*
X105862000Y-82300476D01*
X106004857Y-82395714D01*
X106100095Y-82538571D01*
X106147714Y-82729047D01*
X106100095Y-82919523D01*
X106004857Y-83062380D01*
X105862000Y-83157619D01*
X105671523Y-83205238D01*
X105481047Y-83157619D01*
X105338190Y-83062380D01*
X104862000Y-82776666D02*
X104385809Y-82776666D01*
X104957238Y-83062380D02*
X104623904Y-82062380D01*
X104290571Y-83062380D01*
X103957238Y-83062380D02*
X103957238Y-82062380D01*
X103862000Y-82681428D02*
X103576285Y-83062380D01*
X103576285Y-82395714D02*
X103957238Y-82776666D01*
X103147714Y-83062380D02*
X103147714Y-82062380D01*
X103052476Y-82681428D02*
X102766761Y-83062380D01*
X102766761Y-82395714D02*
X103147714Y-82776666D01*
X102338190Y-83062380D02*
X102338190Y-82395714D01*
X102338190Y-82062380D02*
X102385809Y-82110000D01*
X102338190Y-82157619D01*
X102290571Y-82110000D01*
X102338190Y-82062380D01*
X102338190Y-82157619D01*
X101481047Y-83014761D02*
X101576285Y-83062380D01*
X101766761Y-83062380D01*
X101862000Y-83014761D01*
X101909619Y-82919523D01*
X101909619Y-82538571D01*
X101862000Y-82443333D01*
X101766761Y-82395714D01*
X101576285Y-82395714D01*
X101481047Y-82443333D01*
X101433428Y-82538571D01*
X101433428Y-82633809D01*
X101909619Y-82729047D01*
X101052476Y-83014761D02*
X100957238Y-83062380D01*
X100766761Y-83062380D01*
X100671523Y-83014761D01*
X100623904Y-82919523D01*
X100623904Y-82871904D01*
X100671523Y-82776666D01*
X100766761Y-82729047D01*
X100909619Y-82729047D01*
X101004857Y-82681428D01*
X101052476Y-82586190D01*
X101052476Y-82538571D01*
X101004857Y-82443333D01*
X100909619Y-82395714D01*
X100766761Y-82395714D01*
X100671523Y-82443333D01*
X100052476Y-83062380D02*
X100147714Y-83014761D01*
X100195333Y-82967142D01*
X100242952Y-82871904D01*
X100242952Y-82586190D01*
X100195333Y-82490952D01*
X100147714Y-82443333D01*
X100052476Y-82395714D01*
X99909619Y-82395714D01*
X99814380Y-82443333D01*
X99766761Y-82490952D01*
X99719142Y-82586190D01*
X99719142Y-82871904D01*
X99766761Y-82967142D01*
X99814380Y-83014761D01*
X99909619Y-83062380D01*
X100052476Y-83062380D01*
X99433428Y-82395714D02*
X99052476Y-82395714D01*
X99290571Y-83062380D02*
X99290571Y-82205238D01*
X99242952Y-82110000D01*
X99147714Y-82062380D01*
X99052476Y-82062380D01*
X98862000Y-82395714D02*
X98481047Y-82395714D01*
X98719142Y-82062380D02*
X98719142Y-82919523D01*
X98671523Y-83014761D01*
X98576285Y-83062380D01*
X98481047Y-83062380D01*
M02*
